<svg xmlns="http://www.w3.org/2000/svg" id="drawingArea" width="183.75594582321636" height="71"><g transform="scale(1) translate(15.755945823216363,5) skewX(-10)"><g id="layer6" style="stroke:#000000;stroke-width:1px;" transform="translate(0,0)">
    <path id="path4136" d="m 0,30.50004 18,0" style="fill:none;fill-rule:evenodd;stroke-linecap:butt;stroke-linejoin:miter;stroke-opacity:1"/>
    <path id="path4136-0" d="m 3.5,0.5 10,0" style="display:inline;fill:none;fill-rule:evenodd;stroke-linecap:round;stroke-linejoin:miter;stroke-opacity:1"/>
    <path style="display:inline;fill:none;fill-rule:evenodd;stroke-linecap:round;stroke-linejoin:miter;stroke-opacity:1" d="m 3.5,60.50004 10,0" id="path4187"/>
    <path id="path4139" d="m 8.5,0.5 0,60" style="fill:none;fill-rule:evenodd;stroke-linecap:round;stroke-linejoin:miter;stroke-opacity:1"/>
  </g><g id="layer6" style="stroke:#000000;stroke-width:1px;" transform="translate(18,0)">
    <path style="fill:none;fill-rule:evenodd;stroke-linecap:butt;stroke-linejoin:miter;stroke-opacity:1" d="m 0,30.50004 7,0" id="path4136"/>
    <path style="fill:none;fill-rule:evenodd;stroke-linecap:round;stroke-linejoin:miter;stroke-opacity:1" d="m 3.50005,0.5 0,60" id="path4139"/>
  </g><g id="layer17" style="stroke:#000000;stroke-width:1px;" transform="translate(25,0)">
    <path style="fill:none;fill-rule:evenodd;stroke-linecap:butt;stroke-linejoin:miter;stroke-opacity:1" d="m 0,30.50004 18,0" id="path4136"/>
    <path id="path4210" d="m 7.499851,20.504826 c -0.01388,4.19935 -2.443258,10.002087 -4.664402,9.995146" style="fill:none;fill-rule:evenodd;stroke-linecap:round;stroke-linejoin:miter;stroke-miterlimit:4;stroke-dasharray:none;stroke-opacity:1"/>
    <path style="fill:none;fill-rule:evenodd;stroke-linecap:round;stroke-linejoin:miter;stroke-miterlimit:4;stroke-dasharray:none;stroke-opacity:1" d="M 7.499851,40.494879 C 7.485971,36.295529 5.056593,30.492792 2.835449,30.499733" id="path4881"/>
    <path style="fill:none;fill-rule:evenodd;stroke-linecap:round;stroke-linejoin:miter;stroke-miterlimit:4;stroke-dasharray:none;stroke-opacity:1" d="m 7.528401,20.504826 c 0.01388,4.19935 2.443258,10.002087 4.664402,9.995146" id="path4938"/>
    <path id="path4940" d="m 7.528401,40.494879 c 0.01388,-4.19935 2.443258,-10.002087 4.664402,-9.995146" style="fill:none;fill-rule:evenodd;stroke-linecap:round;stroke-linejoin:miter;stroke-miterlimit:4;stroke-dasharray:none;stroke-opacity:1"/>
    <path style="display:inline;fill:none;fill-rule:evenodd;stroke-linecap:round;stroke-linejoin:miter;stroke-opacity:1" d="m 14.5,24.5 0,12" id="path4163"/>
  </g><g id="layer2" style="stroke:#000000;stroke-width:1px;" transform="translate(43,0)">
    <path style="fill:none;fill-rule:evenodd;stroke-linecap:butt;stroke-linejoin:miter;stroke-opacity:1" d="m 0,30.50004 7,0" id="path4136"/>
    <path style="display:inline;fill:none;fill-rule:evenodd;stroke-linecap:round;stroke-linejoin:miter;stroke-opacity:1" d="m 3.50005,10.5 0,40" id="path4139-3"/>
  </g><g id="layer8" style="stroke:#000000;stroke-width:1px;" transform="translate(50,0)">
    <path style="fill:none;fill-rule:evenodd;stroke-linecap:butt;stroke-linejoin:miter;stroke-opacity:1" d="m 0,30.50004 11,0" id="path4136"/>
    <path style="fill:none;fill-rule:evenodd;stroke-linecap:round;stroke-linejoin:miter;stroke-miterlimit:4;stroke-dasharray:none;stroke-opacity:1" d="m 3.528401,20.504826 c 0.01388,4.19935 2.443258,10.002087 4.664402,9.995146" id="path4938"/>
    <path id="path4940" d="m 3.528401,40.494879 c 0.01388,-4.19935 2.443258,-10.002087 4.664402,-9.995146" style="fill:none;fill-rule:evenodd;stroke-linecap:round;stroke-linejoin:miter;stroke-miterlimit:4;stroke-dasharray:none;stroke-opacity:1"/>
    <path id="path4159" d="m 3.5,20.5 0,20" style="display:inline;fill:none;fill-rule:evenodd;stroke-linecap:round;stroke-linejoin:miter;stroke-opacity:1"/>
  </g><g id="g4142" style="stroke:#000000;stroke-width:1px;" transform="translate(71,0)">
    <path style="fill:none;fill-rule:evenodd;stroke-linecap:butt;stroke-linejoin:miter;stroke-opacity:1" d="m 0,30.50004 20,0" id="path4136"/>
    <path id="path4950" d="m 3.5000734,0.5 c 0.04167,12.604167 7.3333326,30.020833 13.9999996,30" style="fill:none;fill-rule:evenodd;stroke-linecap:round;stroke-linejoin:miter;stroke-opacity:1"/>
    <path style="fill:none;fill-rule:evenodd;stroke-linecap:round;stroke-linejoin:miter;stroke-opacity:1" d="m 3.5000734,60.499907 c 0.04167,-12.604167 7.3333326,-30.020833 13.9999996,-30" id="path4952"/>
    <path style="fill:none;fill-rule:evenodd;stroke-linecap:round;stroke-linejoin:miter;stroke-opacity:1" d="m 3.5001214,0.5 0,60" id="path4139"/>
  </g><g id="layer3" style="stroke:#000000;stroke-width:1px;" transform="translate(91,0)">
    <path style="fill:none;fill-rule:evenodd;stroke-linecap:butt;stroke-linejoin:miter;stroke-opacity:1" d="m 0,30.50004 20,0" id="path4136"/>
    <path id="path4198" d="M 16.5,0.5 C 16.458333,10.276042 14.546216,12.424125 11.349609,12.453125 10.238756,12.463203 8.503552,12.396781 8.5,10.5 8.47917,24.427083 5.833334,30.510416 2.5,30.5" style="fill:none;fill-rule:evenodd;stroke-linecap:round;stroke-linejoin:round;stroke-opacity:1"/>
    <path style="fill:none;fill-rule:evenodd;stroke-linecap:round;stroke-linejoin:round;stroke-opacity:1" d="M 16.5,60.499907 C 16.45833,50.723865 14.546216,48.575782 11.349609,48.546782 10.238756,48.536702 8.503552,48.603122 8.5,50.499907 c -0.02083,-13.927083 -2.666666,-20.010416 -6,-20" id="path4883"/>
    <path style="fill:none;fill-rule:evenodd;stroke-linecap:round;stroke-linejoin:miter;stroke-opacity:1" d="m 16.5,0.5 0,60" id="path4139"/>
  </g><g id="layer16" style="stroke:#000000;stroke-width:1px;" transform="translate(111,0)">
    <path style="fill:none;fill-rule:evenodd;stroke-linecap:butt;stroke-linejoin:miter;stroke-opacity:1" d="m 0,30.50004 13,0" id="path4136"/>
    <path style="display:inline;fill:none;fill-rule:evenodd;stroke-linecap:round;stroke-linejoin:miter;stroke-opacity:1" d="m 3.5,10.5 0,40" id="path4139-3"/>
    <path style="display:inline;fill:none;fill-rule:evenodd;stroke-linecap:round;stroke-linejoin:miter;stroke-opacity:1" d="m 6.5,24.5 0,12" id="path4163"/>
    <path id="path4932" d="m 9.5,24.5 0,12" style="display:inline;fill:none;fill-rule:evenodd;stroke-linecap:round;stroke-linejoin:miter;stroke-opacity:1"/>
  </g><g id="layer4" style="stroke:#000000;stroke-width:1px;" transform="translate(124,0)">
    <path style="fill:none;fill-rule:evenodd;stroke-linecap:butt;stroke-linejoin:miter;stroke-opacity:1" d="m 0,30.50004 14,0" id="path4136"/>
    <path id="path4210" d="m 7.499851,20.504826 c -0.01388,4.19935 -2.443258,10.002087 -4.664402,9.995146" style="fill:none;fill-rule:evenodd;stroke-linecap:round;stroke-linejoin:miter;stroke-miterlimit:4;stroke-dasharray:none;stroke-opacity:1"/>
    <path style="fill:none;fill-rule:evenodd;stroke-linecap:round;stroke-linejoin:miter;stroke-miterlimit:4;stroke-dasharray:none;stroke-opacity:1" d="M 7.499851,40.494879 C 7.485971,36.295529 5.056593,30.492792 2.835449,30.499733" id="path4881"/>
    <path id="path4159" d="m 7.5,20.5 0,20" style="display:inline;fill:none;fill-rule:evenodd;stroke-linecap:round;stroke-linejoin:miter;stroke-opacity:1"/>
    <path style="display:inline;fill:none;fill-rule:evenodd;stroke-linecap:round;stroke-linejoin:miter;stroke-opacity:1" d="m 10.5,24.5 0,12" id="path4163"/>
  </g><g id="layer4" style="stroke:#000000;stroke-width:1px;" transform="translate(138,0)">
    <path style="fill:none;fill-rule:evenodd;stroke-linecap:butt;stroke-linejoin:miter;stroke-opacity:1" d="m 0,30.50004 14,0" id="path4136"/>
    <path id="path4210" d="m 7.499851,20.504826 c -0.01388,4.19935 -2.443258,10.002087 -4.664402,9.995146" style="fill:none;fill-rule:evenodd;stroke-linecap:round;stroke-linejoin:miter;stroke-miterlimit:4;stroke-dasharray:none;stroke-opacity:1"/>
    <path style="fill:none;fill-rule:evenodd;stroke-linecap:round;stroke-linejoin:miter;stroke-miterlimit:4;stroke-dasharray:none;stroke-opacity:1" d="M 7.499851,40.494879 C 7.485971,36.295529 5.056593,30.492792 2.835449,30.499733" id="path4881"/>
    <path id="path4159" d="m 7.5,20.5 0,20" style="display:inline;fill:none;fill-rule:evenodd;stroke-linecap:round;stroke-linejoin:miter;stroke-opacity:1"/>
    <path style="display:inline;fill:none;fill-rule:evenodd;stroke-linecap:round;stroke-linejoin:miter;stroke-opacity:1" d="m 10.5,24.5 0,12" id="path4163"/>
  </g><g id="layer18" style="stroke:#000000;stroke-width:1px;" transform="translate(152,0)">
    <path style="fill:none;fill-rule:evenodd;stroke-linecap:butt;stroke-linejoin:miter;stroke-opacity:1" d="m 0,30.50004 11,0" id="path4136"/>
    <path style="fill:none;fill-rule:evenodd;stroke-linecap:round;stroke-linejoin:round;stroke-miterlimit:4;stroke-dasharray:none;stroke-opacity:1" d="M 7.499548,20.5 C 7.485668,23.757117 6.848642,24.488273 5.783575,24.487233 5.26503,24.486727 4.9955,24.112994 4.834161,23.836504 c -0.0069,4.640133 -0.888462,6.666938 -1.99904,6.663468" id="path4218"/>
    <path id="path4887" d="M 7.499548,40.499879 C 7.485668,37.242762 6.848642,36.511606 5.783575,36.512646 5.26503,36.513152 4.9955,36.886885 4.834161,37.163375 4.827261,32.523242 3.945699,30.496437 2.835121,30.499907" style="fill:none;fill-rule:evenodd;stroke-linecap:round;stroke-linejoin:round;stroke-miterlimit:4;stroke-dasharray:none;stroke-opacity:1"/>
    <path id="path4159" d="m 7.5,20.5 0,20" style="display:inline;fill:none;fill-rule:evenodd;stroke-linecap:round;stroke-linejoin:miter;stroke-opacity:1"/>
  </g></g><desc>The text 'Evan Scully
' displayed in womens script from The Stormlight Archive</desc></svg>