<?xml version="1.0" encoding="utf-8"?>
<!-- Generator: Adobe Illustrator 14.0.0, SVG Export Plug-In . SVG Version: 6.00 Build 43363)  -->
<!DOCTYPE svg PUBLIC "-//W3C//DTD SVG 1.1//EN" "http://www.w3.org/Graphics/SVG/1.1/DTD/svg11.dtd">
<svg version="1.1" id="Layer_1" xmlns="http://www.w3.org/2000/svg" xmlns:xlink="http://www.w3.org/1999/xlink" x="0px" y="0px"
	 width="800px" height="781.5px" viewBox="0 0 800 781.5" enable-background="new 0 0 800 781.5" xml:space="preserve">
<g>
	<path fill-rule="evenodd" clip-rule="evenodd" d="M460.347,170.541c-10.715,7.816-23.891,13.17-26.727,28.864
		c-6.641-1.295-5.57,5.121-10.689,5.345c-0.244-1.895,1.077-5.354-2.139-4.276c8.962-14.201,14.234-32.09,35.278-34.209
		C457.036,168.149,458.462,169.575,460.347,170.541z"/>
	<path fill-rule="evenodd" clip-rule="evenodd" d="M513.799,173.748c-0.768,6.113,1.141,9.549,1.069,14.966
		c30.097,11.953,32.309,51.79,42.762,83.386c4.262,0.729,7.649,2.33,12.829,2.138c6.01-7.889,10.053-17.743,14.967-26.726
		c10.29,1.025,10.305-8.226,17.104-10.691c0.59,6.138-6.757,13.051-6.414,22.45c4.339-5.639,6.378-13.578,10.69-19.243
		c6.994,14.031,20.546,21.503,18.174,44.9c-2.77,1.15-3.974,3.866-7.483,4.276c0-4.989,0-9.978,0-14.967
		c-1.137-2.426-6.72-0.407-9.621-1.069c1.494,15.611,5.779,28.43,22.45,28.864c9.831-13.783,0.754-37.944-3.208-51.314
		c6.468-8.914,12.946-23.323,12.829-35.279c-4.155-1.927-8.225,4.28-12.829,5.346c-8.064-3.694-19.438-4.08-24.588-10.69
		c11.516,2.829,22.61,12.348,33.141,4.276c-3.143-7.547-12.689-8.691-16.035-16.036c9.81,5.514,18.004,12.641,25.657,20.312
		c3.339-15.787-6.968-21.942-2.139-33.141c5.83,2.367,10.253,6.139,12.829,11.76c-7.982,11.973-3.6,36.311-6.415,53.452
		c0.182,4.689-3.761-0.851-5.345-1.069c-2.747,0.104-1.528,4.173-4.276,4.276c8.759,21.755,7.8,56.876-16.035,60.936
		c-12.545-7.055-23.238-15.961-29.934-28.864c-20.552,0.83-35.346,7.417-56.66,7.483c-7.081,13.944-10.738,31.312-20.312,42.762
		c-0.632,4.552,0.769,7.071,1.069,10.691c1.096,3.592-3.326,1.664-5.346,2.138c5.969,14.256-6.204,23.85-9.621,35.279
		c-4.627,0.007-6.784,2.482-11.76,2.138c-0.967-1.885-2.393-3.311-4.276-4.276c5.938-15.438,17.336-45.691-9.621-45.969
		c6.459-6.408,15.321-0.595,22.45-2.138c6.085-1.316,17.484-12.936,20.312-20.312c1.548-4.04-0.006-9.48,1.069-13.898
		c2.745-11.283,9.908-19.666,12.828-27.795c5.472,0.84,7.766-1.5,12.829-1.069c-7.09-27.121-11.937-56.483-36.349-66.281
		c-11.034,4.333,1.213,28.223-8.552,35.279c-11.425,1.516-22.636,5.879-29.934-2.138c4.067-8.405,12.316-12.627,20.312-17.104
		c1.644-14.393,6.674-25.398,9.622-38.486c-9.906-3.116-24.797-9.984-39.556-11.76c8.539-9.345,25.443,4.46,38.486,4.276
		C504.629,175.844,508.016,168.686,513.799,173.748z M577.942,282.791c2.885,2.104,9.341,0.636,13.897,1.069
		c4.179-13.147,1.484-22.181-4.276-32.072C584.945,262.71,578.898,270.205,577.942,282.791z"/>
	<path fill-rule="evenodd" clip-rule="evenodd" d="M490.28,194.06c-5.383,22.057-25.301,29.578-33.141,49.177
		c-1.503-18.383,13.863-28.802,23.519-39.555c-5.292-11.24-27.166-2.662-38.485-3.208c0.354-6.903,11.665-6.739,18.174-7.483
		C470.394,191.842,482.938,190.998,490.28,194.06z"/>
	<path fill-rule="evenodd" clip-rule="evenodd" d="M539.456,204.75c9.979,0,19.957,0,29.935,0c5.055,9.199,5.918,22.59,7.482,35.279
		c-8.906-1.783-2.451-18.929-9.621-22.45c-4.03,15.088,2.636,34.415-1.069,49.177c-5.08-12.381-2.159-32.764-4.276-48.107
		c-4.089-2.681-10.515-3.027-17.104-3.208C543.37,211.526,540.724,208.829,539.456,204.75z"/>
	<path fill-rule="evenodd" clip-rule="evenodd" d="M462.484,207.958c-7.17,9.221-14.547,18.236-21.381,27.795
		c-0.643-7.782,9.929-13.582,12.829-21.381c-10.442-0.107-9.456,11.213-17.105,13.897c1.474-5.653,6.305-7.95,8.553-12.829
		c-5.967-3.441-7.988,6.243-12.829,7.483c0.412-3.509,3.126-4.714,4.276-7.483c-4.92,0.103-4.417,3.616-6.413-1.069
		c-6.156,8.631,3.785,14.013,4.275,22.45c-3.232,1.757-5.749,4.229-11.759,3.208c-5.847-9.121-12.365-17.569-13.898-31.002
		C428.312,210.798,446.66,206.093,462.484,207.958z"/>
	<path fill-rule="evenodd" clip-rule="evenodd" d="M388.72,227.2c2.342,17.258,0.468,38.73,1.069,57.729c-4.276,0-8.552,0-12.829,0
		c1.575-27.125,6.058-58.617-16.035-66.281c-2.341,1.937-0.182,8.371-2.138,10.69c-7.002-1.667-16.632,3.048-19.243-1.069
		c-3.229-2.116,6.581-8.87,5.345-16.036c14.085,0.143,20.833-4.108,28.865,2.138C378.451,218.025,379.412,228.311,388.72,227.2z"/>
	<path fill-rule="evenodd" clip-rule="evenodd" d="M318.163,227.2c29.789,7.627,51.29,23.544,48.107,64.143
		c-14.806-14.415-21.182-37.26-51.314-36.348c4.401,5.94,18.522,11.404,25.657,18.174c1.588,10.589,18.341,13.558,13.898,23.519
		c-13.183-7.486-16.162-25.175-31.002-31.002c-10.155,3.029-22.931,3.439-34.209,5.345c2.411-5.429,7.296-8.383,13.897-9.622
		c-0.918-2.644-7.441,0.314-8.552-2.138c3.02-6.958,11.295-8.661,20.312-9.622c-0.576-7.263-10.575-5.104-18.174-5.345
		c1.812-7.453,11.238-7.293,19.243-8.553C317.08,233.243,317.9,230.5,318.163,227.2z M321.37,243.236
		c13.8,5.442,22.914,15.571,34.209,23.519C351.222,252.3,338.649,234.826,321.37,243.236z"/>
	<path fill-rule="evenodd" clip-rule="evenodd" d="M513.799,227.2c14.26,6.054,14.505,26.12,22.45,38.486
		c-2.913,4.569-8.177,6.79-11.759,10.69c-4.287-1.414-7.207-4.196-10.691-6.414c-10.344,0.346-11.733,9.647-14.966,17.104
		c-14.414-9.462-26.545-21.207-42.763-28.865c0.665-6.104,4.287-9.254,5.346-14.966c8.271-3.923,14.527-0.698,19.242,4.276
		C497.318,246.354,509.156,240.373,513.799,227.2z"/>
	<path fill-rule="evenodd" clip-rule="evenodd" d="M436.827,247.512c4.296-2.475,13.171-0.371,19.243-1.069
		c-0.068,4.919-3.037,6.939-4.275,10.69c-4.063-1.639-9.079-2.324-12.829-4.276C438.374,250.954,438.416,248.418,436.827,247.512z"
		/>
	<path fill-rule="evenodd" clip-rule="evenodd" d="M523.421,279.584c-15.241,8.923-9.529,40.321-26.727,44.9
		c-18.696,4.978-31.359-14.769-44.899-21.381c15.719-6.381,20.035,15.037,40.623,10.69c7.805-2.231,2.672-10.393,4.276-17.105
		C499.763,283.859,513.773,269.123,523.421,279.584z"/>
	<path fill-rule="evenodd" clip-rule="evenodd" d="M449.656,281.722c8.552,0,17.104,0,25.657,0c0.992,3.857-5.373,8.611-9.621,10.69
		c1.478-3.155,4.937-4.329,6.414-7.484C467.216,281.268,452.77,287.162,449.656,281.722z"/>
	<path fill-rule="evenodd" clip-rule="evenodd" d="M391.928,307.379c-9.493,0.816-17.463-2.729-25.658,0
		c0.286-3.849-1.975-5.152-2.138-8.552C370.005,291.703,396.879,294.127,391.928,307.379z"/>
	<path fill-rule="evenodd" clip-rule="evenodd" d="M398.342,305.241c4.634,6.213-0.493,15.977,1.069,25.657
		c-2.139,0-4.276,0-6.415,0C395.113,320.306,388.357,307.278,398.342,305.241z"/>
	<path fill-rule="evenodd" clip-rule="evenodd" d="M574.735,469.875c4.568,4.682,3.81,6.891,0,11.76
		c-3.991-7.413-21.534-1.272-26.726-7.484C550.67,462.339,566.307,474.674,574.735,469.875z"/>
	<path fill-rule="evenodd" clip-rule="evenodd" d="M217.672,581.057c1.315,0.467,2.196,1.368,2.138,3.207
		c-10.372,6.019-18.261,14.522-31.002,18.174C195.083,591.964,208.723,588.854,217.672,581.057z"/>
	<path fill-rule="evenodd" clip-rule="evenodd" d="M414.377,293.481c1.068,25.302,32.049,20.691,41.693,37.417
		c-10.593,2.03-20.331-6.031-34.209-4.276c-2.747,2.598-2.83,7.86-3.208,12.829c-3.503,0.06-4.085,3.04-8.553,2.138
		c-5.944-4.775-0.419-17.504,3.208-22.45c-0.933-8.333-3.874-14.656-7.484-20.312c-6.634-1.146-6.455-0.246-10.689,2.138
		c-0.965-1.885-2.392-3.311-4.276-4.276c10.837-13.257,5.831-45.055,3.207-64.143c9.934,1.737,10.995-5.398,14.967-9.622
		c2.666,3.783,0.759,12.126-2.139,13.897c8.579,17.052-3.204,29.309-6.414,45.97c0.598,1.539,1.668,2.608,3.208,3.207
		c5.084,0.096,3.639-6.339,5.345-9.622c7.214,1.614,7.264,3.716,13.898,0c-1.177-3.813-4.548-5.43-5.346-9.621
		c7.146-3.546,11.133-10.249,16.035-16.036c5.425,7.583-1.693,17.251-4.275,23.519c2.23,1.689,5.623,2.217,9.621,2.138
		c-9.326,5.786-3.394,11.614,3.207,17.105C435.793,291.894,420.651,281.445,414.377,293.481z"/>
	<path fill-rule="evenodd" clip-rule="evenodd" d="M150.322,632.371c3.845,1.5,2.125,8.565,3.208,12.828
		c6.777-0.35,6.442-7.812,9.621-11.76c-5.35-7.086-10.146-15.616-20.312-14.967c-1.387-3.245-2.015-7.249-3.208-10.69
		c-44.65-59.51-79.37-132.012-74.833-235.191c6.086-138.436,87.648-231.146,178.531-285.437c-3.438-2.977-11.812-1.017-16.035-3.208
		C130.758,145.626,46.04,247.632,53.038,406.801c3.97,90.294,38.279,154.367,81.248,210.604c2.853,4.193,3.915-4.226,5.345-1.069
		c4.931,8.203-3.053,12.345-6.415,18.174c1.334,2.585,4.382,3.458,7.484,4.276c-5.362,5.911-13.754,8.731-9.622,21.381
		c-2.457,4.549-5.804-7.442-8.553-9.622c-26.583-3.064-31.766,15.272-40.624,29.935c-3.776-28.724,17.857-41.296,40.624-47.039
		c-43.184-57.463-82.156-126.812-86.593-224.5c-7.195-158.406,73.944-260.196,161.427-327.13C130.273,75.441,64.22,78.585,6,92.5
		c0.729-5.735,7.153-9.669,11.76-13.897C29.915,67.444,44.88,57.85,61.59,48.669c26.786-14.718,56.873-32.608,98.353-27.796
		c15.772,1.83,32.078,9.58,49.176,8.552c29.811-1.791,62.588-16.016,83.386,4.276C390.791-5.716,516.5,17.625,596.116,59.359
		c35.834,18.784,62.368,40.985,89.801,68.419c7.721,7.721,17.888,22.641,25.657,26.726c15.118,7.949,38.216,7.863,58.797,6.415
		c11.385,6.442,5.793,25.691-7.482,25.657c-9.523-2.237-14.684-8.836-19.243-16.036c-8.022-0.887-15.035-2.782-22.45-4.276
		c37.194,52.725,67.542,121.909,73.764,207.396c0.811,11.133,0.847,23.478,0,35.279c-8.048,112.371-55.226,195.088-115.457,253.365
		c2.094,5.033,4.216,10.039,5.346,16.035c-4.243,7.204-15.422,2.012-25.657,4.276c-6.587,1.457-16.429,10.899-23.52,16.035
		c-49.986,36.216-116.586,66.821-198.844,70.558c-128.704,5.847-218.384-43.931-287.574-107.974
		c-1.108,7.087-4.793,11.598-6.414,18.174c-10.325,1.092-17.648,9.492-28.865,12.828c-10.741,3.196-32.084,6.628-33.141-4.275
		c-0.54-5.577,6.645-9.096,10.69-12.829c4.629-4.272,7.729-9.928,11.76-9.621c7.318,6.907-5.293,12.258-7.483,19.243
		c11.495,0.868,12.27-9.971,24.588-5.346c9.481-3.51,20.552-15.149,10.69-25.657C138.644,647.774,144.016,639.606,150.322,632.371z
		 M533.042,82.878c-15.748-1.513-30.8-10.149-47.038-11.76c-10.356-1.027-21.434,1.306-33.14,1.069
		c-29.838-0.603-54.378-18.14-82.318-21.381c-20.853-2.418-41.442,4.589-59.867-1.069c-16.563-5.087-22.74-17.537-37.417-21.381
		c-24.821-6.501-44.238,4.641-68.419,5.345c-22.181,0.646-44-11.256-67.351-9.621c-18.299,1.282-35.86,11.382-53.453,19.243
		C60.878,53.672,40.773,63.807,26.312,77.533c-2.556,2.427-8.061,4.769-6.414,8.553c21.528-4.239,40.639-9.331,63.074-10.69
		c5.187-0.314,12.328,1.394,18.174,0c7.534-1.796,13.304-10.03,20.312-13.897c6.951-3.836,16.379-8.042,24.588-9.622
		c20.001-3.851,40.481,3.247,58.798,3.207c16.172-0.035,31.672-8.193,47.038-7.483c31.16,1.44,45.916,24.287,74.834,26.727
		c20.986,1.77,41.274-2.979,59.867,1.069c20.21,4.401,36.056,20.032,58.797,24.588c19.088,3.824,30.005-6.415,45.97-6.415
		c29.959,0,49.296,32.933,80.179,28.864c0.701-3.931,3.941-5.324,6.414-7.483c-1.157-5.969-6.139-8.115-6.414-14.966
		c6.848-7.407,14.016-14.493,18.174-24.588C570.733,75.366,552.062,84.705,533.042,82.878z M313.887,46.53
		c36.441,4.475,76.502-7.5,114.388-5.345c38.947,2.215,76.414,10.68,105.836,21.381c18.322,6.664,29.535,15.475,47.038,8.552
		C521.293,32.542,393.47,17.61,313.887,46.53z M395.135,51.876c10.985,4.358,25.924,11.757,42.762,14.966
		c13.935,2.656,30.724-1.256,47.038,0c24.729,1.905,42.879,15.162,63.075,9.622C503.709,59.926,456.22,47.416,395.135,51.876z
		 M592.909,77.533c-0.255,4.378-3.632,5.633-4.276,9.622c8.574,5.556,17.488,9.657,26.727,16.035
		c13.318,9.196,20.868,21.267,40.624,18.174C637.285,104.427,617.734,88.342,592.909,77.533z M758.612,415.354
		c1.554-16.977,1.361-34.116,0-50.246c-7.517-89.079-46.705-159.294-96.215-210.604c-3.855-0.419-7.169-1.383-10.69-2.138
		c0-0.712,0-1.426,0-2.139c1.664,0.086,0.741-3.108,0-1.069c-2.631,4.192,3.789,7.264,5.345,12.829
		c2.706,9.672,1.015,21.939-4.276,27.795c-0.023-2.518,1.842-3.147,1.069-6.414c-3.899-2.516-7.793-5.036-12.828-6.415
		c-1.117,5.327-3.729,13.547-5.346,12.829c3.397,1.509-1.356-5.141-1.069-5.345c-2.007,1.428,2.679,6.813-1.068,6.414
		c-2.939-4.9-6.175-9.506-10.69-12.829c-7.899,14.194-20.926,23.262-31.003,35.278c15.37,4.446,6.993,28.456-3.207,32.072
		c-11.582-2.316-8.896-18.899-10.69-31.002c4.768-17.236,34.368-27.05,34.21-45.969c-0.052-6.111-6.281-12.395-8.553-19.243
		c-1.573-4.743,1.692-9.713-4.275-11.76c-6.272,1.925-9.188,7.205-14.968,9.622c1.576,11.216-7.51,32.58-12.828,33.141
		c-0.172,0.018-10.838-8.656-13.898-10.69c-6.369-4.236-12.601-6.584-17.104-8.553c-80.088-35.005-193.678-52.013-282.229-71.626
		C166.606,136.718,95.47,226.852,76.557,348.003c-3.551,22.75-3.151,51.842-1.069,75.902
		c6.322,73.043,36.079,128.556,71.626,177.463c16.038-6.674,26.776-24.271,43.831-23.52c-0.457-4.889-1.626-9.063-1.069-14.966
		c2.995-0.57,5.558-1.569,8.552-2.139c1.364-8.257,6.454-12.789,10.69-18.174c2.953-2.921,1.003,1.565,3.207,2.139
		c6.412-4.992,8.48-14.327,18.174-16.036c0.585,1.553-1.249,5.524,1.069,5.345c10.147-9.392,5.336-31.108,27.795-29.934
		c1.207,5.208,2.645,10.185,5.345,13.898c5.143-1.596,5.878-10.984,11.76-8.553c0.603,4.879-1.895,6.657-1.069,11.759
		c22.521,2.159,39.394,19.857,34.209,42.764c4.647-8.612,12.443-22.312,5.346-33.142c9.728-8.803,28.143-8.916,36.348-19.242
		c-5.164-3.747-9.799-8.02-20.312-6.415c-4.464,8.643-25.705,18.798-33.141,5.346c5.02-2.465,13.334-1.632,18.173-4.276
		c2.053-2.936,2.515-7.464,3.208-11.759c-16.17-9.734-19.81,16.925-40.624,12.828c-2.378-4.617-0.151-9.777,1.068-13.897
		c2.104,2.12,6.106,0.68,8.553,0c2.143-2.27-1.518-4.765-2.138-7.483c6.003-0.878,5.059-5.837,7.483-9.622
		c4.322-6.748,11.981-10.139,14.967-17.104c-0.231-17.336,11.086-23.124,18.174-33.142c5.075-0.269,12.583,1.894,10.69-5.344
		c-25.631-3.591-50.192-8.251-59.867-27.796c-0.199,1.583-2.583,0.98-4.276,1.069c-19.024-16.254-39.804-30.753-56.66-49.177
		c10.226-20.777,17.898-44.106,35.279-57.729c19.487,2.823,31.076,3.873,42.762-6.414c-0.73-4.651,1.923-5.917,4.276-7.483
		c23.204-6.37,37.212,13.78,45.969,28.864c2.738,0.113,5.096,0.605,6.415,2.138c4.717-0.271,5.632-4.345,9.622-5.345
		c-0.134,4.41,1.858,6.694,1.069,11.759c-7.079,2.543-13.632,5.612-23.519,5.346c-7.424-18.589-21.803-30.224-43.832-34.209
		c-3.462,4.377-10.184,5.495-12.829,10.69c12.506,3.47,21.792,2.436,32.072,11.759c8.719,7.908,11.442,30.05,24.588,28.864
		c3.551-0.321,8.507-7.039,11.76-8.552c8.925-4.153,18.044-4.19,24.588-9.622c1.382,4.106,15.452,14.429,14.966,18.174
		c-0.731,5.642-13.595,6.596-17.104,12.829c-2.841,12.819,6.649,13.307,9.622,20.312c-5.64-1.843-8.048-6.919-12.829-9.622
		c-0.907,5.864-4.438,9.103-5.346,14.967c0.649,1.846,5.071-0.082,5.346,2.138c-1.56,5.924-1.344,13.623-5.346,17.105
		c1.465,2.099,6.447,0.68,6.415,4.276c-3.442,12.95-16.741,16.043-26.726,22.45c0.468,3.675-0.423,5.992-1.069,8.552
		c6.922,1.974,14.108,9.43,23.519,16.037c11.636,8.167,31.664,14.718,18.174,29.933c-18.452-13.264-34.515-28.916-54.522-40.624
		c-6.186,9.137-15.619,15.027-16.035,29.934c24.54,5.037,42.13,17.024,58.797,29.934c11.628-10.467,22.656-21.532,33.14-33.141
		c2.322,1.599,1.708,6.132,5.346,6.415c1.556-1.653,5.473-0.942,8.553-1.069c4.476-5.393,2.967-12.528-2.138-16.037
		c-0.477,2.731-1.499,4.916-3.208,6.415c-3.562,0-7.126,0-10.689,0c-8.818-19.688-11.517-45.499-29.934-55.59
		c1.962-10.51,10.004-14.94,7.483-29.933c6.406-3.617,27.612-6.48,32.072,1.068c-2.835,0.017-6.295-0.593-6.415,2.138
		c7.84,5.701,15.274,11.809,22.451,18.174c6.383-2.525,13.52-4.298,21.381-5.346c2.194-5.653-0.605-9.187-3.207-12.829
		c-11.342-2.432-12.918,4.901-20.312,6.415c-2.003-4.768-5.009-8.532-6.414-13.897c-3.965,0.757-4.588-1.827-8.553-1.069
		c-1.135-10.633-16.988-12.223-14.967-22.45c12.89,2.434,25.132,5.516,40.624,5.345c1.958,5.526,5.874,9.092,8.553,13.898
		c3.563,0,7.127,0,10.69,0c1.437,2.127,2.038,5.089,3.207,7.483c3.08,0.128,6.998-0.584,8.553,1.069
		c-1.706,7.764,2.622,9.493,4.276,13.897c-12.23,2.381-16.229,12.994-33.141,10.69c-6.572,5.901-12.073,12.872-19.243,18.174
		c4.244-0.505-0.485,5,0,7.483c8.783,3.112,10.177-5.77,13.897-4.276c6.685,4.718,3.769,19.037,6.414,27.796
		c9.663,7.086,17.596,15.9,26.727,23.519c7.615-4.858,8.959-15.985,9.622-27.795c-14.495-5.817-20.149-20.476-33.141-27.796
		c-3.804-0.881-4.683,6.626-7.484,3.207c-1.202-3.121,3.717-8.04,8.553-8.552c11.528,7.501,16.124,24.707,37.417,19.242
		c2.3-7.929,19.843-17.846,6.414-22.45c-1.231,2.333-0.212,6.915-3.207,7.484c-6.854-0.797-10.867,1.247-17.104,1.068
		c-3.605-2.809-6.575-6.254-8.553-10.69c2.034-2.243,2.913-5.64,7.483-5.345c1.057,4.264-3.195,3.22-2.138,7.483
		c2.294,5.086,15.795,6.214,19.242,1.069c-0.238-2.021,1.205-2.358,1.069-4.276c-3.563,0-7.127,0-10.69,0
		c-1.771-3.574-3.574-7.117-5.345-10.69c6.96-3.526,9.262-0.163,14.966,2.138c16.095,1.099,25.91-7.253,39.556-5.346
		c0.023,2.519-1.842,3.148-1.069,6.415c7.259-1.294,15.977-1.128,21.381-4.276c8.305,6.183,13.732,14.516,25.657,19.243
		c5.073-1.032,5.229-2.763,9.621,0c-0.458,2.036-2.302,2.687-2.138,5.346c12.392,5.069,20.148,14.773,31.002,21.381
		c0.561,3.36,1.876,5.964,3.208,8.553c8.042,3.924,16.344-4.792,21.381,2.138c-1.272,3.005-2.405,6.147-3.207,9.621
		c17.785-4.039,33.756,1.474,31.002,21.381c3.203,3.212,9.197,3.633,11.76,7.484c0.16,9.069-1.859,15.959-1.068,25.657
		c-10.299,7.162-17.767,17.155-26.727,25.657c1.258,0.167,3.035-0.184,3.207,1.068c-0.975,15.378-15.285,23.867-18.174,40.624
		c-3.806,22.069,4.543,52.599-5.346,66.282c6.34,1.5,10.516,5.164,14.967,8.552C702.434,596.092,749.385,516.131,758.612,415.354z
		 M575.805,102.121c2.528,2.46,3.421,6.557,5.345,9.622c3.965,0.757,4.588-1.827,8.553-1.069c4.828,6.22,7.452,14.642,17.104,16.035
		c4.654-3.185,9.759-5.92,14.968-8.552c-13.104-8.277-25.153-17.61-39.556-24.588C581.172,97.511,577.537,98.865,575.805,102.121z
		 M584.356,141.676c10.545-3.38,14.954-16.507,4.276-23.519C584.84,125.803,575.428,132.383,584.356,141.676z M627.118,132.055
		c-2.426-1.137-0.406-6.72-1.069-9.622c-7.127,3.563-17.601,3.78-18.173,13.898c3.983-0.065,6.762,1.078,9.621,2.138
		c1.252-1.599,1.329-4.373,3.208-5.345c14.729-0.733,20.08,9.395,33.14,2.139c1.831,1.732,0.414,6.713,4.276,6.414
		c2.077-5.255,1.237-14.04-1.069-18.173c-4.409,0.133-6.693-1.858-11.759-1.069c-2.357,3.344-3.352,8.053-7.483,9.622
		c0-2.851,0-5.702,0-8.552c-2.376-0.831-4.169-2.246-7.483-2.138C627.2,122.871,632.016,132.319,627.118,132.055z M660.26,140.607
		c7.495,0.715,15.896,6.178,22.449,4.276c-8.067-4.768-13.58-17.77-22.449-18.174C662.6,129.467,661.214,137.596,660.26,140.607z
		 M607.876,143.814c2.995-1.23,5.558-1.23,8.553,0c-0.481-4.152-7.37-1.896-9.622-4.276
		C606.567,141.559,608.011,141.896,607.876,143.814z M612.152,149.159c-0.559,9.111,4.366,12.739,7.483,18.174
		c1.466-2.454,4.401-3.438,6.413-5.345c3.104,5.805,5.809,12.01,10.691,16.036c-1.794-10.322-10.464-13.768-8.553-27.796
		C623.168,148.357,617.209,145.295,612.152,149.159z M638.879,166.264c6.983-0.57,7.651,5.177,10.689,8.552
		c0.621-5.082,1.546-9.858,1.069-16.035c-3.346-1.287-7.13-2.135-10.69-3.208C640.302,159.849,638.042,161.508,638.879,166.264z
		 M766.096,421.768c-5.86,94.329-54.159,168.547-104.768,219.156c-6.615,6.615-9.899,7.451-5.345,10.689
		c8.483,6.032,20.148-10.526,24.588-14.966c8.417-8.418,15.484-17.997,20.312-23.52c45.248-55.951,78.041-129.364,78.041-227.708
		c0-98.475-37.995-169.496-83.386-223.432c-4.633-1.804-13.834-4.667-18.174-3.207C728.914,216.51,773.76,298.408,766.096,421.768z
		 M301.058,311.655c-5.209-1.104-10.878,1.91-16.036,1.069c-10.793-1.76-14.419-9.28-21.381-16.036
		c-5.007-0.338-8.405-2.286-12.829-3.207c-14.715,12.368-20.078,34.087-29.934,51.314c9.197,7.909,18.404,15.806,27.795,23.52
		c0.873-16.588,7.467-27.456,16.036-36.349c0.167,1.258-0.184,3.035,1.069,3.208c-0.468-3.675,0.422-5.992,1.068-8.552
		c11.157-2.927,39.827-8.94,41.693,6.414c-7.352-6.99-27.046-6.574-38.486-3.207c-4.085,15.836,8.997,21.857,16.036,29.934
		c4.772-6.988,14.853-8.666,27.796-7.483c-0.138-5.552,0.685-13.497,5.345-17.105C314.912,325.365,312.65,314.111,301.058,311.655z
		 M330.992,341.589c-3.331,7.207-8.53,9.878-6.415,20.312c7.834,6.776,21.281,7.94,35.279,8.552
		c4.363-11.008,11.595-20.966,5.345-34.21C352.352,327.758,350.08,346.9,330.992,341.589z M260.434,377.937
		c-0.455-13.284-0.621-26.278,9.622-28.865c0.256,1.162,1.76,2.567,2.138,1.069c-3.584-1.405-4.441-5.537-7.483-7.483
		c-6.809,6.02-9.149,16.508-10.691,27.795c-1.838,0.422-2.74-1.587-3.207,0C254.063,372.904,257.017,375.652,260.434,377.937z
		 M263.642,380.074c3.275,3.496,6.078,7.463,11.759,8.553c2.146-8.189,6.779-13.89,8.552-22.45
		c-2.979-5.573-7.001-10.104-11.759-13.898C270.302,362.502,262.605,366.923,263.642,380.074z M294.644,366.177
		c2.413,5.066,23.245,9.186,23.52,0C311.478,362.653,301.298,362.015,294.644,366.177z M428.275,374.729
		c4.031-0.958,7.021-2.956,8.552-6.414c-1.979-3.366-7.554-3.136-12.828-3.208C424.666,369.073,427.005,371.368,428.275,374.729z
		 M322.439,370.453c-0.018,3.19-2.78,3.635-3.208,6.415c9.998,5.682,24.158,7.201,38.486,8.552c0.951-2.613,2.491-4.635,2.138-8.552
		C344.601,382.332,334.984,373.545,322.439,370.453z M392.996,373.66c-0.948,8.316-1.498,17.031-6.414,21.381
		c13.635,13.091,21.991,31.462,31.002,49.177c4.048-13.864-4.956-22.44-4.276-36.348c-4.231-9.316-21.802-10.975-18.174-24.588
		c8.35,3.767,16.658,7.574,21.381,14.967c4.77-0.931,11.521,0.117,11.76-5.346C420.468,386.942,408.339,365.833,392.996,373.66z
		 M338.475,411.077c9.048-4.85,15.902-11.893,23.519-18.174c-8.226-3.388-20.012,4.733-32.072,4.276
		c-6.766-4.994-12.992-10.526-21.381-13.897C313.111,397.955,329.633,400.676,338.475,411.077z M521.283,395.041
		c-3.081,13.312-7.943,24.843-17.105,32.071c0.977,4.012,2.421,7.559,3.207,11.76c8.318-0.835,12.438-1.095,18.175,2.139
		c1.014-19.656,13.295-33.739,14.966-49.176C535.062,393.854,527.665,393.94,521.283,395.041z M539.456,446.356
		c2.434,0.774,5.462,0.953,7.484,2.137c2.034-12.219,8.376-20.13,12.828-29.933c7.969,1.197,9.63-3.912,10.69-9.621
		c-9.52-1.885-14.794-8.013-22.449-11.76C542.136,410.549,541.421,429.076,539.456,446.356z M554.423,452.77
		c2.483,0.724,2.862,3.553,5.346,4.276c6.364-13.235,13.653-25.545,19.242-39.555c-0.965-1.884-2.391-3.311-4.275-4.276
		C567.737,426.172,560.53,438.922,554.423,452.77z M569.391,457.046c3.27-0.775,3.144,1.845,6.414,1.069
		c1.997-14.039,13.013-19.059,17.104-31.003C576.566,424.376,575.562,446.065,569.391,457.046z M546.94,461.322
		c-10.843,8.022-12.842,30.817,3.207,35.278c5.143-4.37,12.93-8.139,19.243-7.482c4.599,0.478,7.639,5.707,12.828,6.413
		c7.931,1.082,11.93-2.862,20.312-4.275c1.827-8.942,0.757-17.771,3.207-24.588c2.474-6.882,9.498-8.258,10.691-14.967
		c-4.014-3.827-11.562-4.118-17.104-6.414C597.146,465.233,568.185,463.996,546.94,461.322z M490.28,465.599
		c7.192,1.818,10.813,6.767,20.312,3.208c0-3.208,0-6.415,0-9.622c-7.131,2.512-9.684-6.919-16.035-8.553
		C492.558,455.048,492.278,461.183,490.28,465.599z M514.868,457.046c0,3.563,0,7.127,0,10.691
		c3.947,4.249,11.427,4.965,20.312,4.275c1.665-4.036,4.749-6.654,6.414-10.69C529.938,465.98,525.421,450.478,514.868,457.046z
		 M624.98,466.668c4.535-1.615,13.639-1.615,18.174,0c2.481-3.223,5.331-6.072,8.553-8.553
		C643.433,453.812,622.81,453.61,624.98,466.668z M430.414,483.772c1.618-3.37,6.415-3.561,9.621-5.346
		c0.789-5.268,2.234-9.881,3.207-14.966C426.24,442.95,411.883,478.998,430.414,483.772z M444.312,479.496
		c5.617,2.936,9.632,7.474,17.104,8.553c1.2-2.72,2.625-5.214,4.276-7.483c-7.787-2.905-12.602-8.78-19.243-12.828
		C445.745,471.666,444.372,474.924,444.312,479.496z M477.452,478.427c2.535,3.522,6.378,5.737,10.689,7.484
		c1.337-4.723,4.948-7.168,6.415-11.761c-2.48-2.863-5.139-5.551-9.622-6.413C483.833,472.692,478.423,473.342,477.452,478.427z
		 M630.326,469.875c-2.062,8.741-12.338,16.538-10.69,27.795c1.809,12.369,18.251,21.972,22.45,32.071
		c7.063-6.833,14.988-12.807,20.312-21.381c1.394-19.923-14.157-22.904-18.174-37.416
		C638.787,469.025,636.984,469.581,630.326,469.875z M358.787,509.43c0.071,2.48,7.262-5.243,7.483-9.622
		c-17.879-11.34-28.899-29.541-58.798-28.863c-1.404,2.868-10.434,8.322-6.414,9.621C325.758,484.02,345.859,497.768,358.787,509.43
		z M489.211,491.256c6.693,2.929,9.651,9.592,17.104,11.76c1.729-2.191,5.145-2.696,7.483-4.276
		c0.366-7.849-2.729-12.236-2.138-20.312c-7.602,1.676-2.691-2.517-5.346-5.345C497.985,476.51,492.599,482.884,489.211,491.256z
		 M399.411,481.635c0.639,6.341-1.876,9.527-1.069,16.035c4.503-2.6,4.922,3.035,8.552,4.276c6.227-5.534,13.869-9.65,19.244-16.035
		C422.25,475.912,407.726,473.803,399.411,481.635z M514.868,480.565c2.152,4.974,2.163,12.09,3.208,18.174
		c4.397,0.591,6.913,3.064,11.759,3.207c3.442-2.616,6.756-5.361,8.553-9.621C534.393,484.742,523.398,470.578,514.868,480.565z
		 M482.797,508.36c2.34-3.718,4.735-7.379,6.414-11.76c-5.268-5.065-8.608-12.059-16.035-14.966
		C460.274,482.947,459.966,514.003,482.797,508.36z M440.035,482.703c-7.311-0.333-9.492,8.19-16.036,11.761
		c3.72,6.97,9.474,11.907,14.967,17.104c5.755-3.153,10.099-7.72,13.898-12.829C446.863,492.616,448.677,483.097,440.035,482.703z
		 M376.96,504.084c3.03,15.201,25.909-0.948,17.105-18.173C389.382,492.358,374.865,493.567,376.96,504.084z M533.042,517.982
		c6.059,0,12.116,0,18.175,0c3.551-4.477,1.166-11.438,0-17.105C540.145,492.195,529.173,503.617,533.042,517.982z M418.653,497.67
		c-2.636,4.491-9.553,4.7-11.76,9.622c3.675,6.303,6.15,13.804,14.968,14.966c2.907-3.149,7.35-4.766,8.553-9.621
		C427.854,506.288,424.292,500.941,418.653,497.67z M483.865,515.845c6.635,6.151,9.899,9.116,21.381,6.413
		c0.457-4.889,1.627-9.063,1.069-14.966c-5.93-1.198-8.97-5.283-13.897-7.484C489.59,505.177,486.11,509.893,483.865,515.845z
		 M457.14,500.877c-3.76,6.218-11.017,8.939-14.967,14.968c5.233,4.387,8.483,10.759,17.104,11.759
		C474.549,523.287,469.754,504.722,457.14,500.877z M510.592,505.153c0.8,7.215-1.72,11.108-1.069,18.174
		c6.517,0.611,9.907,4.348,18.175,3.207c3.935-6.737-0.52-11.479,0-20.312C522.735,503.679,515.896,501.714,510.592,505.153z
		 M530.903,526.534c-0.732,6.86-1.26,10.883-4.274,17.105c-9.598,1.448-11.511,10.584-20.313,12.828
		c-7.004-2.747-10.327-14.439-17.104-13.897c0.286,15.262-16.846,17.573-31.003,24.589c-6.254-4.793-10.545-11.55-16.035-17.105
		c-6.01,10.613-22.854,4.168-33.141,9.621c-6.2-3.064-9.18-9.35-16.036-11.76c-3.76,1.271-5.537,8.881-10.69,5.346
		c-4.108-1.237-1.325-9.366-2.138-13.897c-33.062,0.791-39.794,27.912-72.696,28.865c-4.46,6.584-4.716,17.376-10.69,22.449
		c-29.144-0.077-47.083-11.358-76.972-10.69c8.47-5.064,15.096-14.349,24.588-13.897c11.618,0.551,30.617,19.648,49.176,13.897
		c8.753-22.917,1.094-44.958-21.381-48.107c-6.807,3.295-11.34,9.421-9.622,16.035c2.729,10.505,26.493,7.816,31.002,16.037
		c0.24,4.516-1.648,6.903-2.138,10.689c-5.401-7.783-14.962-11.407-26.726-12.828c-15.568-7.942-0.057-40.319-12.829-47.038
		c-9.236,9.449,3.545,23.887-1.069,32.07c-6.441-3.181-8.013-11.229-11.76-17.104c-6.978,7.277-11.618,16.89-9.621,33.142
		c-6.511,6.316-13.397,12.26-23.52,14.966c-2.686-4.083-4.553-8.987-7.483-12.828c-1.385,8.008-1.891,9.261-4.276,14.967
		c-0.906,2.168-1.547,6.666-2.138,7.483c-6.468,8.939-35.329,14.505-37.417,23.52c-2.177,9.396,6.714,12.509,11.76,18.173
		c27.006-17.576,48.75-49.252,97.284-38.485c1.127,17.589-16.719,10.695-28.865,12.828c-14.55,2.557-27.758,14.88-38.486,19.243
		c-1.818,2.102-1.229,6.612-3.207,8.553c-4.596,1.105-9.469,1.935-13.897,3.207c48.838,48.06,120.547,92.067,214.879,96.215
		c83.152,3.655,146.4-16.119,198.844-48.107c-115.729,0.442-230.744,1.596-346.373,2.139c-6.463-6.723-18.772-7.6-22.45-17.105
		c109.757-2.493,224.143-0.357,335.682-1.069c7.893-20.614,15.666-41.351,13.898-71.627c3.02-2.68,6.351-5.052,8.552-8.552
		c-2.954-3.816-5.883-7.658-7.483-12.829c1.449-3.182,4.826-4.438,7.483-6.413c-2.322-6.231-8.59-8.516-10.69-14.968
		c2.526-6.738,2.523-16.006,5.345-22.45c-8.313-2.297-5.471-15.842-1.068-20.312c-3.873-1.117-4.956-5.021-10.69-4.276
		C573.883,527.172,547.74,533.707,530.903,526.534z M372.685,507.292c-5.465,4.156-10.81,8.434-17.105,11.76
		c1.492,6.704,5.988,10.403,6.415,18.174c4.98-1.435,12.612-0.218,17.104-2.139c1.471-4.231,4.891-6.513,7.484-9.622
		C383.843,517.515,380.232,510.434,372.685,507.292z M583.287,513.706c-0.821,4.029,1.305,5.11,1.069,8.552
		c5.983-1.455,17.79-8.782,21.381,0c-8.692-0.995-17.853,3.34-25.657,6.415c-0.551,8.715-2.825,15.705-4.275,23.519
		c3.611,3.517,5.917,8.338,10.69,10.691c12.799-4.662,29.389-5.533,34.21-18.174c-6.682-1.871-6.94-10.165-8.553-17.105
		c3.667-4.53,9.521-6.87,14.966-9.621c-0.692-5.009-4.708-6.694-6.413-10.69C605.396,506.595,595.583,511.391,583.287,513.706z
		 M386.583,514.775c1.436,4.979,3.644,9.185,5.345,13.897c7.277-0.919,10.935-5.458,17.104-7.484
		C408.519,508.809,393.258,506.887,386.583,514.775z M423.999,527.604c1.882,3.107,2.436,7.542,3.207,11.76
		c5.025,1.033,10.869,1.247,11.76,6.414c2.934-5.619,7.245-9.859,10.69-14.967C445.15,518.788,429.165,511.765,423.999,527.604z
		 M480.658,519.052c-17.992-2.092-16.11,21.404-3.206,24.588c7.619-1.135,12.499-8.015,17.104-14.967
		C489.514,528.093,486.449,519.724,480.658,519.052z M622.843,552.191c0.599-1.54,1.667-2.608,3.206-3.207
		c1.949,2.328,1.029,7.524,4.277,8.553c2.339-8.708,3.026-19.067,7.483-25.657c-3.354-3.417-5.198-8.343-8.553-11.759
		c-3.398,3.371-7.653,5.888-12.828,7.482c-0.482,9.035,5.194,11.91,8.552,17.105C625.504,547.811,620.553,550.857,622.843,552.191z
		 M396.204,532.949c-2.647,14.764,7.776,16.455,13.896,22.45c13.475-2.816,15.268-15.474,10.691-28.865
		C412.287,519.833,403.101,528.767,396.204,532.949z M493.487,538.294c4.052,4.858,8.901,8.916,12.828,13.897
		c5.59-2.606,9.093-7.3,12.829-11.759c-1.033-4.312-2.135-8.556-3.207-12.829C503.037,525.75,496.662,530.422,493.487,538.294z
		 M444.312,544.709c2.982,7.707,10.44,10.939,13.896,18.174c6.073-1.768,10.561-5.12,16.037-7.483c-2.265-3.895-1.415-4.931,0-9.622
		c-5.231-6.172-13.252-9.555-22.45-11.76C449.769,538.051,446.92,541.259,444.312,544.709z M202.706,560.744
		c4.404,1.653,6.133,5.981,13.897,4.276c1.889-5.239,2.575-11.68,9.622-11.76c-0.758-3.964,1.826-4.588,1.069-8.552
		C213.767,538.184,211.914,556.421,202.706,560.744z M587.563,568.229c-1.668,5.44-5.989,15.47,0,19.242
		c1.199-6.291,7.386-0.021,10.691,1.069c-2.245,10.584-4.309,21.347-9.622,28.864c0.483,8.679-2.143,14.249-7.483,17.104
		c-5.735-11.912-0.586-35.873,2.138-42.762c-11.012,10.893-3.26,30.115-6.414,47.038c-1.962,10.534-10.742,18.347-11.759,26.727
		c1.967,5.872,9.98,5.699,18.173,5.345c4.83-12.995-13.895-26.541,6.415-33.141c-2.785-1.801,2.917-5.221,4.276-8.553
		c6.777-16.606,10.086-42.929,19.242-58.798c2.259-2.73,6.998-2.979,7.484-7.482C615.233,549.176,598.214,567.101,587.563,568.229z
		 M615.359,631.302c6.66-10.219,2.868-27.901,0-39.555C611.318,601.353,610.287,621.882,615.359,631.302z M590.771,695.444
		c-47.673,27.123-117.742,50.609-192.43,45.969c-98.958-6.146-172.952-47.293-226.639-99.422c-0.712,0-1.425,0-2.138,0
		c-11.619,7.057,11.489,23.21,20.312,29.935c64.779,49.366,166.17,92.148,281.16,73.764c54.295-8.68,109.151-31.204,148.599-57.728
		c1.482-0.999,5.741-2.479,4.276-5.346C606.482,680.278,601.771,689.186,590.771,695.444z M638.879,675.133
		c-3.647-0.985-8.816-0.449-10.691-3.207c1.47-7.797,0.752-17.778,4.276-23.52c-5.113-1.656-8.291-5.249-13.897-6.415
		c-8.514,4.31-7.619,20.536-6.414,28.865C620.079,671.963,634.983,677.075,638.879,675.133z M645.293,677.271
		c4.275,0,8.552,0,12.828,0c1.304-5.824,1.274-12.98,3.207-18.173c-4.489-1.926-7.537-5.293-14.966-4.277
		C645.691,659.778,646.979,670.423,645.293,677.271z M662.397,678.34c7.545-0.853,12.896,2.01,17.104-1.069
		c1.11-7.691-5.134-16.837-14.966-17.104C663.746,666.147,662.537,671.709,662.397,678.34z"/>
</g>
</svg>
