<?xml version="1.0" encoding="UTF-8" standalone="no"?>
<!-- Created with Inkscape (http://www.inkscape.org/) -->

<svg
   xmlns:dc="http://purl.org/dc/elements/1.1/"
   xmlns:cc="http://creativecommons.org/ns#"
   xmlns:rdf="http://www.w3.org/1999/02/22-rdf-syntax-ns#"
   xmlns:svg="http://www.w3.org/2000/svg"
   xmlns="http://www.w3.org/2000/svg"
   xmlns:sodipodi="http://sodipodi.sourceforge.net/DTD/sodipodi-0.dtd"
   xmlns:inkscape="http://www.inkscape.org/namespaces/inkscape"
   width="490.2417mm"
   height="489.93839mm"
   viewBox="0 0 490.2417 489.93838"
   version="1.1"
   id="svg8"
   inkscape:version="0.92.4 (5da689c313, 2019-01-14)"
   sodipodi:docname="dawnshard.svg">
  <defs
     id="defs2" />
  <sodipodi:namedview
     id="base"
     pagecolor="#ffffff"
     bordercolor="#666666"
     borderopacity="1.0"
     inkscape:pageopacity="0.0"
     inkscape:pageshadow="2"
     inkscape:zoom="0.24748738"
     inkscape:cx="1508.2129"
     inkscape:cy="549.06072"
     inkscape:document-units="mm"
     inkscape:current-layer="layer1"
     showgrid="false"
     inkscape:window-width="1920"
     inkscape:window-height="1017"
     inkscape:window-x="-8"
     inkscape:window-y="-7"
     inkscape:window-maximized="1" />
  <metadata
     id="metadata5">
    <rdf:RDF>
      <cc:Work
         rdf:about="">
        <dc:format>image/svg+xml</dc:format>
        <dc:type
           rdf:resource="http://purl.org/dc/dcmitype/StillImage" />
        <dc:title></dc:title>
      </cc:Work>
    </rdf:RDF>
  </metadata>
  <g
     inkscape:label="Layer 1"
     inkscape:groupmode="layer"
     id="layer1"
     transform="translate(599.51208,10.417792)">
    <path
       style="fill:#000000;stroke-width:0.26458335"
       d="m -366.9448,479.18778 c -2.98317,-0.17896 -6.31692,-0.42354 -7.40833,-0.54356 -1.09141,-0.11999 -2.0951,-0.18727 -2.23043,-0.14949 -0.13533,0.0378 -1.0283,-0.0521 -1.98438,-0.19971 -0.95607,-0.14761 -2.51222,-0.34395 -3.45811,-0.43632 -0.94588,-0.0924 -2.07698,-0.21706 -2.51354,-0.2771 -0.43656,-0.06 -1.32953,-0.18007 -1.98437,-0.26673 -1.32232,-0.17499 -13.05587,-2.13285 -13.89063,-2.31782 -0.29104,-0.0645 -1.48167,-0.32169 -2.64583,-0.57156 -1.16417,-0.2499 -2.59292,-0.55726 -3.175,-0.68305 -0.58209,-0.12581 -2.30849,-0.53316 -3.83646,-0.90524 -1.52797,-0.37208 -3.01625,-0.71811 -3.30729,-0.76893 -1.27385,-0.22244 -10.03613,-2.57496 -10.48443,-2.81488 -0.27268,-0.14594 -0.49578,-0.2077 -0.49578,-0.13724 0,0.0705 -0.41615,-0.0458 -0.92478,-0.25831 -0.50863,-0.21251 -1.01464,-0.38918 -1.12448,-0.39256 -0.39931,-0.0124 -2.32811,-0.57261 -2.7758,-0.80629 -0.25269,-0.1319 -0.61066,-0.23982 -0.79551,-0.23982 -0.38628,0 -3.48051,-1.03598 -7.87318,-2.63599 -1.67349,-0.60958 -3.34037,-1.20426 -3.70417,-1.32152 -0.3638,-0.11726 -0.95911,-0.33525 -1.32292,-0.4844 -0.3638,-0.14917 -1.3163,-0.52681 -2.11666,-0.83923 -0.80037,-0.31242 -1.7231,-0.68072 -2.05052,-0.81846 -1.0557,-0.44405 -1.7271,-0.72361 -5.09323,-2.12069 -4.21273,-1.74842 -15.3255,-7.22574 -20.59709,-10.15198 -3.32962,-1.84825 -6.90838,-3.9524 -10.73989,-6.31458 -7.00242,-4.31707 -19.82149,-13.52621 -26.73907,-19.20917 -11.77879,-9.67653 -22.68138,-20.5877 -33.07292,-33.09895 -0.87312,-1.05122 -1.71199,-2.04655 -1.86416,-2.21181 -0.15217,-0.16529 -0.94583,-1.19348 -1.76369,-2.28489 -0.81785,-1.09141 -1.94783,-2.57969 -2.51107,-3.30729 -1.01313,-1.30882 -3.65738,-4.97613 -6.37971,-8.84801 -1.258,-1.78922 -4.42388,-6.53799 -6.00767,-9.01137 -2.45938,-3.8408 -3.06028,-4.81661 -3.82885,-6.21771 -0.47896,-0.87312 -1.09209,-1.90354 -1.36252,-2.28981 -0.27044,-0.38626 -0.4917,-0.76901 -0.4917,-0.85053 0,-0.0815 -0.63619,-1.25378 -1.41374,-2.60498 -1.50122,-2.60876 -7.22717,-13.98944 -8.49108,-16.87655 -0.41409,-0.94589 -0.96441,-2.19604 -1.22294,-2.77813 -0.82504,-1.85761 -2.80291,-6.58643 -3.0986,-7.40833 -0.15706,-0.43656 -0.60922,-1.62719 -1.00481,-2.64583 -1.4685,-3.78145 -3.8837,-10.8172 -4.99537,-14.55209 -0.38982,-1.30968 -0.81249,-2.6789 -0.93927,-3.04271 -0.52162,-1.49693 -2.20612,-7.85756 -3.04803,-11.50937 -0.33549,-1.45521 -0.9096,-3.89599 -1.27581,-5.42396 -0.80213,-3.3469 -2.91993,-13.89515 -3.18725,-15.875 -0.0688,-0.50932 -0.42491,-3.01371 -0.79143,-5.56527 -0.69875,-4.86452 -0.7349,-5.18449 -1.20963,-10.7066 -0.16263,-1.89178 -0.41166,-4.47832 -0.55339,-5.74787 -0.14173,-1.26955 -0.26471,-3.7401 -0.2733,-5.4901 -0.009,-1.7842 -0.12417,-3.18183 -0.26277,-3.18183 -0.31694,0 -0.33257,-14.74002 -0.0158,-14.86076 0.12727,-0.0485 0.30693,-2.11226 0.39923,-4.58611 0.0923,-2.47386 0.22287,-4.85511 0.29015,-5.29167 0.0673,-0.43656 0.24711,-2.28203 0.39962,-4.10104 0.34216,-4.08087 0.67329,-7.15797 1.06772,-9.92188 0.16613,-1.16416 0.34898,-2.47385 0.40633,-2.91041 0.4176,-3.17877 1.02002,-6.68009 1.98026,-11.50938 0.27488,-1.38244 0.5586,-2.81119 0.63049,-3.175 1.7418,-8.81437 7.37347,-29.50516 8.89385,-32.67604 0.13955,-0.29104 0.50237,-1.30307 0.80628,-2.24896 0.30391,-0.94588 0.7062,-2.07698 0.894,-2.51354 0.18779,-0.43656 0.72982,-1.86531 1.20451,-3.175 0.7294,-2.01247 1.36248,-3.5435 3.17278,-7.67292 0.12759,-0.29104 0.48383,-1.12447 0.79165,-1.85207 0.96547,-2.28211 5.84061,-12.52584 6.35891,-13.36146 0.1354,-0.21828 0.41162,-0.75406 0.61383,-1.19062 0.3154,-0.68095 2.357,-4.33821 5.90793,-10.58334 0.49645,-0.87312 1.10502,-1.8988 1.35237,-2.27928 0.24735,-0.38049 0.80486,-1.27346 1.2389,-1.98438 0.69669,-1.14109 3.09063,-4.83835 3.83496,-5.9228 0.14983,-0.218277 0.59944,-0.893256 0.99914,-1.49995 1.4631,-2.220797 2.82929,-4.205428 3.35889,-4.879386 0.29857,-0.379939 0.72144,-0.962048 0.93972,-1.293577 0.21828,-0.331528 0.64384,-0.913638 0.94568,-1.293577 0.30184,-0.379939 1.41139,-1.881423 2.46566,-3.336631 2.5384,-3.503747 5.59415,-7.463674 6.516,-8.444061 0.14852,-0.157953 0.74263,-0.882502 1.32023,-1.610106 1.13892,-1.434703 3.82098,-4.524277 6.98937,-8.051342 2.63049,-2.928266 12.98804,-13.298168 16.13879,-16.158033 1.36274,-1.236927 2.60936,-2.37036 2.77026,-2.518738 0.2881,-0.265666 3.76775,-3.192174 7.59764,-6.389876 1.07543,-0.897916 2.72924,-2.196428 3.67512,-2.88558 0.94589,-0.689155 1.77933,-1.323716 1.85209,-1.410137 0.15718,-0.18669 4.59886,-3.498498 6.48229,-4.833334 7.68081,-5.443577 15.78577,-10.670625 21.62969,-13.94941 0.5457,-0.306171 1.43867,-0.807487 1.98437,-1.114036 0.54571,-0.306549 1.11125,-0.651296 1.25677,-0.766104 0.60361,-0.47621 15.02218,-7.580235 17.72709,-8.734128 0.29104,-0.124156 1.44851,-0.650426 2.57216,-1.1694902 1.12364,-0.519063 2.11244,-0.943751 2.19733,-0.943751 0.0849,0 0.65382,-0.224935 1.26429,-0.499857 0.61049,-0.274921 1.88388,-0.795352 2.82976,-1.156513 0.94589,-0.361161 2.67229,-1.024889 3.83646,-1.474951 1.16417,-0.450062 2.83104,-1.051868 3.70417,-1.337347 0.87312,-0.285479 2.48046,-0.839024 3.57187,-1.230101 1.8771,-0.672611 11.69791,-3.70152704 12.83229,-3.95771504 0.29104,-0.06573 2.61276,-0.65956196 5.15938,-1.31963096 2.54661,-0.660069 4.86833,-1.247043 5.15937,-1.304387 0.29105,-0.05734 1.5412,-0.341801 2.77813,-0.632128 2.94806,-0.691957 8.02779,-1.76886 10.84792,-2.299756 0.3638,-0.06849 0.95911,-0.188459 1.32291,-0.266605 0.3638,-0.07815 1.01865,-0.189465 1.45521,-0.247377 0.43656,-0.05791 1.56766,-0.226835 2.51354,-0.375384 0.94589,-0.14855 2.19604,-0.342443 2.77813,-0.430875 3.29582,-0.500712 11.47702,-1.527249 12.03854,-1.510537 0.21828,0.0065 1.28984,-0.102236 2.38125,-0.241628 3.23314,-0.412928 15.62891,-1.0232728 20.90208,-1.0291818 5.46929,-0.0061 13.97127,0.38067 18.38855,0.8365838 1.60073,0.165215 3.44619,0.333131 4.10104,0.373147 1.73619,0.106093 5.47608,0.573058 11.77396,1.470102 3.05593,0.435275 5.79437,0.825079 6.08541,0.866231 0.29105,0.04115 0.7673,0.149598 1.05834,0.240991 0.29104,0.09139 1.05637,0.230624 1.70074,0.309405 0.64434,0.07878 1.59684,0.254062 2.11667,0.389513 0.5198,0.135451 1.71899,0.385961 2.66488,0.556688 2.78016,0.501805 12.03105,2.675998 16.93333,3.979766 1.67349,0.44506696 3.2213,0.84724296 3.43959,0.89372496 0.21828,0.04648 1.17078,0.326223 2.11666,0.621647 0.94589,0.295424 3.14854,0.97092804 4.89479,1.50112104 1.74625,0.530193 3.41313,1.066476 3.70417,1.191739 0.29104,0.125263 1.30307,0.484081 2.24896,0.797374 1.55633,0.515486 4.17317,1.462736 8.20208,2.969025 2.04764,0.765548 9.39509,3.8221102 10.98021,4.5677992 7.88212,3.707984 12.76946,6.103831 15.08125,7.393068 0.58209,0.324615 1.77271,0.986449 2.64584,1.470745 0.87312,0.484293 2.03163,1.158171 2.57442,1.497502 0.54282,0.339334 1.05087,0.616969 1.12898,0.616969 0.16525,0 3.05776,1.727393 7.01222,4.187669 8.04418,5.004705 20.13567,13.653648 26.23616,18.766541 0.82368,0.690341 2.43102,2.022457 3.57188,2.960257 8.53519,7.016123 20.92084,19.433704 28.25229,28.325117 1.25989,1.527969 2.77085,3.347297 3.35764,4.042955 1.84862,2.191496 6.99106,8.994016 9.04804,11.968896 0.7026,1.016137 1.70735,2.442837 2.23276,3.170441 3.15659,4.371395 12.49527,19.260224 12.49776,19.925394 0,0.10062 0.42653,0.88919 0.94702,1.75239 0.98327,1.63069 5.97024,11.46277 6.98757,13.77638 0.31996,0.72761 0.97406,2.15636 1.45362,3.175 0.90836,1.92956 3.58256,8.36613 4.6169,11.11249 0.32882,0.87313 0.69577,1.82563 0.81544,2.11667 0.11967,0.29104 0.53488,1.42214 0.92274,2.51354 0.38782,1.09141 0.92442,2.57969 1.19242,3.30729 0.26802,0.72761 1.04143,3.10886 1.71871,5.29167 0.67725,2.18281 1.32982,4.26641 1.45013,4.63021 1.48603,4.49352 5.5895,21.61634 6.62606,27.64896 0.12504,0.7276 0.52388,3.04932 0.88633,5.15937 1.00833,5.8701 1.70892,11.38275 2.26968,17.85938 0.69545,8.03208 0.84984,10.80709 0.98626,17.72708 0.13649,6.92379 0.0462,9.47928 -0.71501,20.24063 -0.30509,4.31297 -1.07704,12.12125 -1.43878,14.55332 -0.66921,4.49943 -1.27646,8.25101 -1.71283,10.58209 -0.28605,1.52797 -0.70806,3.79016 -0.93782,5.02709 -0.22979,1.23692 -0.71866,3.49911 -1.08641,5.02708 -0.36774,1.52797 -0.89479,3.73063 -1.17123,4.89479 -1.4446,6.0837 -2.13249,8.70694 -3.60796,13.75834 -1.28625,4.40367 -1.69537,5.7368 -1.94868,6.35 -0.12026,0.29104 -0.77965,2.19411 -1.46537,4.22904 -1.24333,3.68962 -1.46185,4.28792 -2.14228,5.8651 -0.19783,0.45858 -0.3597,0.91022 -0.3597,1.0037 0,0.22757 -2.53326,6.59963 -3.18659,8.01542 -0.28467,0.61687 -0.51758,1.1798 -0.51758,1.25097 0,0.0711 -0.40275,0.99518 -0.89503,2.05341 -0.49226,1.0582 -1.15784,2.51934 -1.47908,3.24694 -0.77694,1.75974 -5.57918,11.32512 -6.44239,12.83229 -0.37504,0.65485 -1.02576,1.84547 -1.44603,2.64584 -0.42023,0.80036 -1.55731,2.81008 -2.52682,4.46606 -0.96951,1.65594 -1.76273,3.07702 -1.76273,3.15793 0,0.0809 -0.22559,0.39291 -0.50131,0.69331 -0.27572,0.30044 -0.72612,0.96296 -1.00089,1.47228 -0.2748,0.50932 -0.83727,1.45216 -1.25,2.09518 -2.79151,4.34922 -4.25021,6.51563 -4.43857,6.59196 -0.11967,0.0485 -0.21757,0.25689 -0.21757,0.46302 0,0.20617 -0.0971,0.37484 -0.21587,0.37484 -0.11872,0 -0.483,0.44648 -0.80952,0.99219 -0.67821,1.13342 -0.69384,1.15538 -4.86553,6.82786 -4.56025,6.20078 -5.15321,6.95955 -9.5871,12.26786 -2.06851,2.47644 -3.49469,4.09429 -4.96104,5.62776 -0.40018,0.4185 -0.7276,0.82032 -0.7276,0.89289 0,0.32618 -8.99012,9.46232 -13.91132,14.13727 -4.14499,3.93761 -6.86149,6.31399 -12.8116,11.20762 -1.79853,1.47921 -9.97493,7.72112 -11.77396,8.98832 -3.92269,2.7631 -5.62316,3.92835 -8.91643,6.11005 -4.36031,2.88859 -8.73406,5.65907 -10.00109,6.33505 -0.50943,0.27178 -1.64061,0.91324 -2.51373,1.42544 -6.16551,3.61694 -14.75028,7.96626 -22.27771,11.28665 -2.50285,1.104 -4.6175,2.00729 -4.69923,2.00729 -0.0817,0 -0.65334,0.22979 -1.27022,0.51065 -2.9801,1.35683 -12.65531,4.85658 -18.71638,6.77015 -1.23693,0.39053 -2.4769,0.75449 -2.75548,0.80884 -0.27861,0.0543 -1.05251,0.27484 -1.71979,0.49 -4.00952,1.29278 -18.16574,4.71832 -24.23041,5.8633 -0.29194,0.0551 -0.88797,0.1796 -1.32453,0.27665 -0.43657,0.097 -1.03188,0.21132 -1.32292,0.25397 -0.29104,0.0427 -1.48167,0.25408 -2.64583,0.4698 -3.33777,0.61849 -3.52314,0.64754 -6.95849,1.0909 -1.78988,0.23098 -3.7804,0.51827 -4.42339,0.63839 -0.64299,0.12012 -1.21459,0.17288 -1.27023,0.11726 -0.0556,-0.0556 -1.27979,0.0713 -2.72034,0.28213 -8.96224,1.31151 -25.97071,1.79374 -37.9411,1.07574 z m 23.01875,-12.10461 c 1.81901,-0.0911 3.84308,-0.23328 4.49792,-0.31599 0.65484,-0.0827 2.32172,-0.21825 3.70417,-0.30117 1.38245,-0.0829 3.04932,-0.18304 3.70416,-0.22249 1.17875,-0.071 2.83184,-0.27824 8.73125,-1.09458 3.34082,-0.46228 5.91109,-0.81548 7.54063,-1.03619 0.58208,-0.0788 1.25428,-0.20466 1.49378,-0.27961 0.23951,-0.075 0.77529,-0.1864 1.19063,-0.24765 0.90326,-0.13317 3.71562,-0.61826 4.45934,-0.76915 2.2271,-0.45188 4.83272,-1.02692 6.66036,-1.46989 1.18935,-0.28826 2.43951,-0.58526 2.77812,-0.65998 0.33864,-0.0747 1.33006,-0.32125 2.20319,-0.5479 0.87312,-0.22664 1.76609,-0.45611 1.98437,-0.50998 0.70729,-0.17452 4.33689,-1.16941 5.39081,-1.47767 0.56383,-0.16492 1.21867,-0.34674 1.45521,-0.40402 1.96855,-0.47694 11.52297,-3.66847 13.39461,-4.47429 0.43656,-0.18799 1.62719,-0.61021 2.64583,-0.93829 1.01865,-0.32809 2.09021,-0.72517 2.38125,-0.88241 0.29104,-0.15722 0.5887,-0.30036 0.66146,-0.31809 0.26982,-0.0657 1.23193,-0.44971 2.67891,-1.06918 0.81856,-0.35044 1.59424,-0.63714 1.72373,-0.63714 0.12949,0 0.94806,-0.34412 1.81901,-0.7647 2.23962,-1.08148 4.03971,-1.88113 4.23466,-1.88113 0.0916,0 2.0329,-0.9153 4.31398,-2.03399 2.28107,-1.11868 4.20695,-2.04324 4.27971,-2.05454 0.31456,-0.0489 8.24127,-4.2985 9.9695,-5.34474 1.04484,-0.63254 2.02711,-1.15007 2.18281,-1.15007 0.15571,0 0.28311,-0.11906 0.28311,-0.26458 0,-0.14552 0.13229,-0.26458 0.29398,-0.26458 0.16168,0 1.26301,-0.59854 2.44739,-1.33012 2.27724,-1.4066 2.4515,-1.51257 4.53467,-2.75701 0.7276,-0.43466 1.38245,-0.85373 1.45521,-0.93128 0.0728,-0.0775 2.25308,-1.55035 4.84515,-3.27292 2.59207,-1.72257 5.50911,-3.7283 6.4823,-4.45712 0.97319,-0.72885 2.11571,-1.58165 2.53894,-1.89513 0.42322,-0.31348 0.89947,-0.69294 1.05833,-0.84325 0.15886,-0.15031 0.70554,-0.56312 1.21486,-0.91734 0.50932,-0.35422 1.06167,-0.76703 1.22746,-0.91734 0.16576,-0.15031 0.6319,-0.51141 1.03587,-0.80245 0.40394,-0.29104 0.86362,-0.65635 1.0215,-0.81182 0.15788,-0.15545 0.88236,-0.73565 1.60996,-1.28932 0.72761,-0.55369 1.95541,-1.55757 2.72844,-2.23091 0.77306,-0.67331 1.7191,-1.49757 2.10233,-1.83171 0.38322,-0.33412 1.21856,-1.04849 1.85629,-1.5875 5.54085,-4.68294 13.74195,-12.76337 19.77128,-19.48037 1.16416,-1.29694 2.68221,-2.97471 3.37344,-3.72838 0.69122,-0.75367 1.25677,-1.44145 1.25677,-1.52844 0,-0.087 0.4224,-0.61125 0.93869,-1.16504 0.51628,-0.55383 1.67714,-1.94855 2.57968,-3.09944 0.90255,-1.15086 1.84936,-2.31172 2.10402,-2.57969 0.25466,-0.26794 0.46302,-0.60624 0.46302,-0.75176 0,-0.14552 0.0934,-0.26458 0.20754,-0.26458 0.11414,0 0.40315,-0.33115 0.64223,-0.73586 0.23907,-0.40473 0.79861,-1.14887 1.24343,-1.65365 0.44482,-0.50479 0.81066,-0.99859 0.81299,-1.09733 0.003,-0.0987 0.15306,-0.33726 0.33496,-0.53007 1.12702,-1.19446 5.75469,-7.75054 5.75469,-8.15273 0,-0.14619 0.0893,-0.26813 0.19843,-0.27102 0.10914,-0.003 0.55047,-0.59822 0.98074,-1.32291 0.43023,-0.72472 0.84965,-1.31768 0.93202,-1.31768 0.0823,0 0.37925,-0.44649 0.65981,-0.99219 0.28054,-0.5457 0.65257,-1.17078 0.82672,-1.38906 0.4155,-0.52075 4.53025,-7.23715 5.27026,-8.60248 0.31655,-0.58404 1.1515,-2.07232 1.85542,-3.30729 1.2392,-2.17408 2.2787,-4.10911 3.83567,-7.14023 0.62682,-1.22031 2.32547,-4.74903 4.77623,-9.92188 0.91382,-1.92884 2.91848,-6.58841 3.58563,-8.33437 0.36145,-0.94589 1.11742,-2.85089 1.67995,-4.23334 0.56255,-1.38244 1.39906,-3.64463 1.85893,-5.02708 0.45988,-1.38245 0.9393,-2.75167 1.06537,-3.04271 0.53838,-1.24277 2.44113,-7.30972 2.77948,-8.86251 0.0477,-0.21883 0.28096,-0.99322 0.51837,-1.72082 0.23738,-0.7276 0.71916,-2.39448 1.07061,-3.70417 0.35142,-1.30968 0.82235,-3.03609 1.04651,-3.83646 0.22413,-0.80036 0.47159,-1.81239 0.54988,-2.24895 0.0783,-0.43657 0.42762,-1.98438 0.77629,-3.43959 0.70445,-2.94018 1.92312,-8.97398 2.11082,-10.45104 0.0277,-0.21828 0.12845,-0.75406 0.22381,-1.19062 0.0953,-0.43657 0.23296,-1.21047 0.30578,-1.7198 0.0728,-0.50932 0.25712,-1.75948 0.40955,-2.77812 1.1725,-7.8358 1.73855,-13.0664 2.24768,-20.76979 0.1106,-1.67349 0.21889,-4.05656 0.24062,-5.29571 0.0217,-1.23915 0.10538,-2.37025 0.18587,-2.51354 0.13882,-0.24709 0.11125,-14.01888 -0.0281,-14.01888 -0.0364,0 -0.0935,-1.13109 -0.12687,-2.51354 -0.0334,-1.38245 -0.15385,-3.70417 -0.2676,-5.15937 -0.11374,-1.45521 -0.24508,-3.24115 -0.29186,-3.96875 -0.19566,-3.04368 -0.93139,-9.86621 -1.4551,-13.49376 -0.16806,-1.16416 -0.35425,-2.58611 -0.4137,-3.15988 -0.0595,-0.57377 -0.2281,-1.48889 -0.37479,-2.03359 -0.14668,-0.54472 -0.2418,-1.0873 -0.21137,-1.20575 0.0304,-0.11845 -0.0481,-0.75114 -0.17457,-1.40598 -0.12645,-0.65485 -0.24403,-1.30969 -0.26128,-1.45521 -0.0172,-0.14552 -0.12218,-0.6813 -0.23318,-1.19063 -0.11099,-0.50932 -0.2404,-1.22369 -0.28755,-1.5875 -0.127,-0.97957 -0.90027,-4.59803 -1.49836,-7.01146 -0.44027,-1.77647 -0.95599,-4.04396 -1.43063,-6.28981 -0.19023,-0.90009 -1.52209,-5.63485 -2.24972,-7.99769 -0.40331,-1.30968 -0.9379,-3.09562 -1.18796,-3.96875 -0.9975,-3.48303 -3.3633,-10.24445 -5.25052,-15.00599 -0.67572,-1.70486 -1.22859,-3.16596 -1.22859,-3.24687 0,-0.0809 -0.47625,-1.16841 -1.05834,-2.41663 -0.58208,-1.24823 -1.05833,-2.31437 -1.05833,-2.36921 0,-0.0548 -0.78679,-1.85606 -1.74842,-4.00274 -2.50719,-5.59691 -7.2784,-14.95077 -9.38784,-18.40471 -0.42349,-0.69341 -0.76999,-1.37802 -0.76999,-1.52135 0,-0.14334 -0.11906,-0.26061 -0.26458,-0.26061 -0.14552,0 -0.26459,-0.15492 -0.26459,-0.34427 0,-0.18935 -0.47625,-1.0772 -1.05833,-1.973 -0.58208,-0.89581 -1.05833,-1.69821 -1.05833,-1.78312 0,-0.0849 -0.22479,-0.47697 -0.49954,-0.87126 -0.27471,-0.39429 -0.94731,-1.43127 -1.49463,-2.30439 -1.03383,-1.64925 -2.33656,-3.62546 -4.19507,-6.36383 -0.59775,-0.88073 -1.20587,-1.78676 -1.35139,-2.01341 -0.71202,-1.10897 -3.5797,-5.092479 -4.44505,-6.174649 -0.11647,-0.145629 -0.71178,-0.930664 -1.32292,-1.744517 -1.83674,-2.445912 -6.18172,-7.935206 -7.66191,-9.679726 -0.76274,-0.898951 -2.02713,-2.387232 -2.80977,-3.307292 -1.55019,-1.822405 -6.37429,-6.962526 -10.35097,-11.029061 -3.03017,-3.098641 -9.59041,-9.212209 -12.81526,-11.942728 -1.28899,-1.091406 -2.83218,-2.407436 -3.42929,-2.924514 -0.59711,-0.517075 -2.15723,-1.765252 -3.46691,-2.773727 -1.30969,-1.008478 -3.28962,-2.549946 -4.39987,-3.425489 -1.11024,-0.875541 -2.30087,-1.791259 -2.64583,-2.034924 -0.34496,-0.243665 -1.3416,-0.959922 -2.21472,-1.591675 -1.7944,-1.298356 -1.87777,-1.35554 -5.68854,-3.902589 -1.52797,-1.021262 -3.20863,-2.16781 -3.73481,-2.547882 -0.52617,-0.380071 -1.20798,-0.829048 -1.51511,-0.997725 -0.30713,-0.168674 -2.55553,-1.514679 -4.99644,-2.99112 -4.00519,-2.422623 -6.57125,-3.891261 -10.92031,-6.250006 -1.98189,-1.074891 -9.72799,-4.956183 -9.89132,-4.956183 -0.0723,0 -1.18035,-0.488294 -2.46229,-1.085098 -1.28193,-0.596803 -2.92608,-1.320761 -3.65368,-1.608791 -0.72761,-0.288034 -1.73964,-0.740995 -2.24896,-1.006581 -0.836,-0.435933 -4.02421,-1.72788 -8.73125,-3.538143 -0.94589,-0.363773 -2.61276,-0.962115 -3.70417,-1.329651 -1.0914,-0.367532 -3.175,-1.076769 -4.63021,-1.576083 -2.63244,-0.90325 -4.57141,-1.511094 -6.08541,-1.907701 -0.98108,-0.257001 -0.78047,-0.197135 -2.51354,-0.750128 -2.16194,-0.689832 -7.78349,-2.2130502 -8.99584,-2.4375132 -0.3638,-0.06736 -2.09021,-0.467583 -3.83646,-0.889391 -2.75598,-0.665709 -4.77573,-1.095838 -9.525,-2.028475 -0.58208,-0.114306 -1.23198,-0.192367 -1.4442,-0.173468 -0.21225,0.0189 -0.58044,-0.06976 -0.81825,-0.197026 -0.23778,-0.127263 -1.1357,-0.302956 -1.99535,-0.39043 -0.85966,-0.08747 -1.74162,-0.208109 -1.9599,-0.268078 -0.81889,-0.224976 -2.15522,-0.408205 -8.73126,-1.197185 -1.0914,-0.130944 -3.23453,-0.364461 -4.7625,-0.518926 -1.52796,-0.154464 -3.25437,-0.340163 -3.83645,-0.412664 -1.05725,-0.131684 -2.63726,-0.233443 -8.86355,-0.570843 -4.57094,-0.247699 -16.56302,-0.231361 -21.03437,0.02866 -2.03729,0.118472 -4.35901,0.251672 -5.15938,0.296 -0.80036,0.04433 -1.45521,0.09737 -1.45521,0.117875 0,0.0205 -0.59531,0.0762 -1.32291,0.123768 -3.64728,0.238453 -6.3687,0.480479 -6.53161,0.580882 -0.0999,0.06156 -1.29051,0.224171 -2.64584,0.361361 -2.35852,0.238738 -12.18416,1.658595 -13.8413,2.000141 -0.43656,0.08998 -1.09141,0.205395 -1.45521,0.256481 -0.3638,0.05109 -0.66146,0.116284 -0.66146,0.144882 0,0.0286 -0.23812,0.08019 -0.52917,0.11465 -0.92862,0.10995 -7.37675,1.476633 -8.22947,1.744239 -0.75534,0.237046 -1.11364,0.321107 -2.61844,0.614317 -0.29104,0.05671 -1.30308,0.305629 -2.24896,0.553156 -0.94589,0.247527 -1.89839,0.493159 -2.11667,0.545851 -5.95854,1.4383382 -21.76515,6.6190442 -25.87086,8.4793182 -0.7683,0.348113 -1.50925,0.632931 -1.64657,0.632931 -0.25873,0 -1.0736,0.349057 -4.57731,1.960743 -1.1355,0.522322 -2.17891,0.949674 -2.3187,0.949674 -0.13979,0 -0.4609,0.116904 -0.71359,0.259784 -0.25269,0.14288 -1.53099,0.750469 -2.84068,1.350195 -6.36812,2.916063 -17.10801,8.567116 -21.88089,11.513164 -0.68388,0.422114 -2.11263,1.291024 -3.17501,1.930911 -4.30473,2.592797 -15.01883,9.940377 -17.22047,11.809563 -0.17685,0.150146 -1.5708,1.221709 -3.09766,2.38125 -1.52686,1.159542 -3.07468,2.36273 -3.43958,2.67375 -1.84653,1.573842 -4.13307,3.475342 -4.8878,4.064717 -5.85914,4.575477 -19.5967,18.388404 -26.70867,26.855209 -0.97788,1.164166 -2.08486,2.473854 -2.45995,2.910416 -0.37509,0.436563 -1.17023,1.448594 -1.76697,2.248959 -0.59675,0.800364 -1.15084,1.514739 -1.23131,1.5875 -0.11507,0.104029 -3.65449,4.735896 -4.54906,5.953125 -0.10694,0.145521 -0.47304,0.621771 -0.81354,1.058333 -0.3405,0.436563 -1.41467,1.984377 -2.38704,3.439587 -0.97236,1.4552 -2.09751,3.12208 -2.50032,3.70416 -0.40282,0.58208 -1.79,2.72521 -3.08264,4.7625 -1.29264,2.03729 -2.61682,4.12089 -2.94264,4.63021 -0.72026,1.12592 -3.82208,6.63752 -3.82208,6.79142 0,0.0605 -0.12665,0.25388 -0.28144,0.42964 -0.50406,0.57234 -7.58655,14.59922 -8.44418,16.72372 -0.11749,0.29104 -0.51407,1.18401 -0.88129,1.98438 -0.77854,1.69683 -3.14327,7.35332 -3.20771,7.67291 -0.0147,0.0728 -0.40132,1.08479 -0.85922,2.24896 -0.4579,1.16417 -1.12793,2.95011 -1.48895,3.96875 -0.36103,1.01865 -1.14658,3.2213 -1.74567,4.89479 -0.59909,1.67349 -1.12954,3.28084 -1.17877,3.57188 -0.0492,0.29104 -0.16685,0.70776 -0.26138,0.92604 -0.56011,1.29352 -3.34694,11.07233 -3.92093,13.75833 -0.13994,0.65485 -0.32513,1.36922 -0.41154,1.5875 -0.0864,0.21828 -0.13175,0.5055 -0.10078,0.63825 0.031,0.13276 -0.0708,0.54948 -0.22608,0.92605 -0.15533,0.37656 -0.332,0.92279 -0.39262,1.21383 -0.0606,0.29104 -0.36924,1.77932 -0.68584,3.30729 -0.3166,1.52797 -0.6878,3.31391 -0.82487,3.96875 -0.13708,0.65484 -0.30541,1.60734 -0.37406,2.11667 -0.0686,0.50932 -0.18001,1.10463 -0.24746,1.32291 -0.0675,0.21828 -0.18778,0.92001 -0.2674,1.55939 -0.0796,0.63938 -0.19718,1.24734 -0.26127,1.35103 -0.0641,0.10369 -0.17822,0.71165 -0.25365,1.35103 -0.13538,1.14761 -0.33177,2.53557 -0.57475,4.06188 -0.34345,2.15745 -0.89954,6.83225 -1.27599,10.72667 -0.0633,0.65485 -0.20192,2.0836 -0.30804,3.175 -0.10612,1.09141 -0.22044,2.63922 -0.25403,3.43959 -0.0336,0.80036 -0.0771,1.45521 -0.0966,1.45521 -0.16056,0 -0.41119,9.01662 -0.40818,14.68437 0.006,10.89783 0.69757,21.63207 1.96944,30.55938 0.14512,1.01864 0.32491,2.32833 0.39951,2.91041 0.19269,1.50339 0.67482,4.55385 0.9409,5.95313 0.12453,0.65484 0.29357,1.60734 0.37566,2.11666 0.0821,0.50933 0.19262,1.16417 0.24563,1.45521 0.053,0.29104 0.17207,0.94589 0.26458,1.45521 0.0925,0.50932 0.2311,1.2237 0.30796,1.5875 0.0769,0.3638 0.25252,1.19724 0.39035,1.85208 0.88282,4.19447 1.31159,6.03843 1.54713,6.65353 0.14751,0.38521 0.20663,0.76198 0.13137,0.83723 -0.0753,0.0753 -0.0138,0.36673 0.13659,0.64775 0.15038,0.28099 0.32567,0.79719 0.38953,1.14713 0.0639,0.34993 0.2606,1.17154 0.4372,1.82583 0.1766,0.65429 0.35698,1.36867 0.40083,1.5875 0.23697,1.18258 0.45799,2.04272 0.64613,2.51458 0.11605,0.29104 0.4133,1.24354 0.66056,2.11666 0.98242,3.46903 1.85822,6.23494 2.97415,9.39271 0.64282,1.81901 1.21078,3.48589 1.26213,3.70417 0.14489,0.61582 1.13749,3.2639 2.52899,6.74687 2.33413,5.84243 3.20124,7.92435 4.1147,9.87931 0.49902,1.06801 0.90731,1.99723 0.90731,2.06494 0,0.5661 8.23705,16.4389 9.96636,19.20518 0.33934,0.54282 0.61697,1.05841 0.61697,1.1458 0,0.0874 0.3989,0.77433 0.88643,1.52659 0.48754,0.75227 1.45368,2.32027 2.14698,3.48443 0.6933,1.16417 1.36597,2.15636 1.49482,2.20486 0.12885,0.0485 0.23427,0.19989 0.23427,0.33641 0,0.22305 1.2522,2.2914 1.58503,2.61811 0.0741,0.0728 1.32539,1.91627 2.7806,4.0967 1.45521,2.18043 3.41974,4.9879 4.36562,6.23877 0.94589,1.2509 2.60514,3.44408 3.68722,4.87376 1.08209,1.42965 2.39178,3.10086 2.91042,3.71382 0.51864,0.61296 1.65736,1.98708 2.53049,3.05356 0.87312,1.06651 1.88515,2.25396 2.24896,2.63882 0.3638,0.38486 1.37583,1.52035 2.24896,2.52336 4.51705,5.18887 11.10251,11.74832 20.10833,20.0289 3.29965,3.03395 12.51207,10.39921 17.11895,13.68648 2.64166,1.88497 9.21904,6.35 9.35412,6.35 0.0768,0 0.37884,0.2228 0.67114,0.49514 0.43497,0.40523 8.75518,5.49844 10.6851,6.54084 0.2944,0.15904 1.66637,0.94581 3.04882,1.74842 1.38244,0.80261 2.98979,1.69662 3.57187,1.98668 0.58208,0.29006 3.55865,1.77503 6.61459,3.29996 3.05593,1.5249 6.38968,3.11251 7.40833,3.52803 1.01864,0.41553 1.97114,0.8418 2.11667,0.94729 0.49675,0.3601 10.31096,4.27562 13.62604,5.43629 6.54502,2.29156 9.69514,3.3433 11.90625,3.97513 1.23693,0.35348 2.84427,0.81573 3.57187,1.02724 1.46467,0.4258 4.34976,1.21203 4.7625,1.29789 0.14552,0.0303 0.74084,0.18854 1.32292,0.35171 0.58208,0.16317 1.35599,0.352 1.71979,0.41963 0.3638,0.0676 1.37584,0.3166 2.24896,0.55332 1.79748,0.48731 2.14382,0.56378 7.80521,1.72307 2.25557,0.46186 4.48433,0.8812 4.95279,0.93184 0.46846,0.0506 0.95603,0.1565 1.0835,0.23527 0.12746,0.0788 0.81573,0.20013 1.5295,0.26963 0.71376,0.0695 3.38134,0.44607 5.92796,0.83675 2.54661,0.39068 4.8088,0.70551 5.02708,0.69964 0.21828,-0.006 1.06585,0.10062 1.88349,0.23664 0.81763,0.13605 2.42497,0.30369 3.57187,0.37256 1.1469,0.0689 2.68058,0.1946 3.40818,0.27943 1.52282,0.17751 4.22622,0.33091 8.69128,0.49321 1.72423,0.0627 3.20632,0.18523 3.29348,0.27238 0.1851,0.18513 12.43078,0.0474 17.2517,-0.19399 z m 0.66146,-22.60348 c -0.82854,-0.19402 -1.19062,-0.86876 -1.19062,-2.21864 0,-5.03841 4.53377,-10.70436 15.61041,-19.5086 0.50933,-0.40484 1.97575,-1.50398 3.25872,-2.44251 3.17976,-2.32608 3.57523,-2.60807 5.36173,-3.82307 0.85587,-0.58208 1.73696,-1.20126 1.95794,-1.37596 0.22101,-0.17468 3.31885,-2.26523 6.88412,-4.64563 7.50633,-5.01174 10.72425,-7.20744 13.49375,-9.20727 14.48943,-10.46263 23.84168,-21.32883 27.0855,-31.47009 1.43555,-4.48803 1.81739,-6.80657 1.81258,-11.00553 -0.004,-3.9329 -0.52885,-6.40112 -1.98972,-9.36689 -1.63124,-3.31155 -5.64925,-6.56063 -8.66185,-7.00421 -0.64947,-0.0956 -1.41901,-0.21666 -1.71006,-0.269 -0.29104,-0.0523 -0.72903,-0.10425 -0.97329,-0.11538 -1.17634,-0.0536 -1.77816,-2.39038 -0.85373,-3.31481 1.06881,-1.06878 2.01985,-1.30125 5.66348,-1.3843 1.96453,-0.0448 4.46485,-0.19727 5.55625,-0.3389 1.09141,-0.14161 3.23453,-0.38796 4.7625,-0.54745 5.19486,-0.54227 7.9216,-1.10803 10.1341,-2.10265 1.11416,-0.50085 1.42362,-0.53536 2.51354,-0.28024 2.18062,0.5104 2.82152,0.79348 4.08702,1.80519 5.52749,4.41905 6.97765,12.59957 4.27837,24.13458 -0.40275,1.72109 -1.7906,6.27981 -2.21512,7.27604 -0.12401,0.29105 -0.49398,1.24355 -0.82214,2.11667 -0.90302,2.40268 -3.1967,7.15478 -4.576,9.48071 -0.6759,1.13982 -1.22893,2.12503 -1.22893,2.18937 0,0.36301 -7.67792,12.81145 -10.18181,16.50805 -1.62636,2.40109 -3.8844,5.73484 -5.01784,7.40833 -3.09685,4.57237 -4.15515,5.52482 -9.00613,8.1054 -1.9291,1.02624 -7.99259,3.64308 -9.13172,3.94103 -0.21829,0.0571 -1.40891,0.45339 -2.64584,0.88066 -2.28475,0.78923 -5.73627,1.90175 -6.21771,2.00417 -0.84449,0.17962 -8.00343,2.53097 -11.44923,3.76047 -7.30621,2.60694 -14.57944,6.00281 -20.96223,9.78723 -5.07558,3.00934 -7.10686,4.63428 -10.04615,8.03653 -2.35135,2.72169 -2.76561,3.16693 -2.91843,3.13674 -0.0728,-0.0143 -0.37042,-0.0819 -0.66146,-0.15004 z m -85.26198,-5.54617 c -0.18984,-0.0766 -0.33073,-0.60008 -0.33073,-1.22883 0,-0.99476 0.14606,-1.23437 1.58991,-2.60829 1.57743,-1.50104 4.26232,-3.14709 8.33197,-5.10816 4.41594,-2.12793 7.18846,-3.39087 8.46666,-3.85672 0.72761,-0.26517 2.33495,-0.85722 3.57188,-1.31567 3.08734,-1.14429 8.96969,-3.0345 10.24532,-3.29218 0.25866,-0.0523 0.79773,-0.2217 1.19791,-0.37653 0.40018,-0.15486 0.7276,-0.22791 0.7276,-0.16235 0,0.0656 0.32742,-0.006 0.72761,-0.16007 0.59322,-0.2277 6.77728,-1.88061 8.26823,-2.20996 0.79486,-0.17558 7.06355,-1.77871 8.99583,-2.30055 1.09141,-0.29475 2.16297,-0.57375 2.38125,-0.62005 0.41116,-0.0872 7.62855,-2.04073 9.26042,-2.50659 4.86611,-1.38906 18.41275,-5.76503 19.71146,-6.36738 0.29104,-0.13499 2.07698,-0.83463 3.96875,-1.55472 1.89177,-0.72011 4.39208,-1.69878 5.55625,-2.17482 3.13605,-1.28233 12.36813,-5.99906 14.94896,-7.63749 8.79591,-5.58408 14.67448,-11.77547 17.62336,-18.56113 1.75938,-4.04855 2.32159,-6.62723 2.32762,-10.67599 0.007,-4.50935 -0.40378,-5.91823 -3.42096,-11.74181 -0.25471,-0.49165 -1.04894,-1.66786 -1.76493,-2.61379 -0.71596,-0.94597 -1.24346,-1.8719 -1.17218,-2.05764 0.19386,-0.50522 2.27103,-1.85206 3.44837,-2.23594 1.10477,-0.36023 3.07044,-0.29464 8.75559,0.29218 3.86175,0.39859 7.46887,0.44085 11.51125,0.13488 l 3.04462,-0.23045 1.34165,1.0605 c 4.70299,3.71753 6.38879,12.28651 3.68178,18.71499 -1.5286,3.63013 -2.24877,5.11582 -3.10115,6.39768 -0.4045,0.6083 -0.73544,1.17506 -0.73544,1.25946 0,0.30528 -3.3337,4.9276 -4.7625,6.60348 -3.28144,3.84878 -7.68617,8.0664 -11.49546,11.00709 -0.84828,0.65484 -1.9128,1.49524 -2.36561,1.86756 -0.45281,0.37229 -4.33565,3.00371 -8.62851,5.84753 -22.728,15.0563 -26.91885,17.87136 -31.22084,20.97156 -1.81901,1.31085 -3.91081,2.87221 -4.64844,3.46969 -1.34075,1.08601 -1.40591,1.109 -6.33177,2.23499 -2.17667,0.49755 -8.22867,1.27373 -11.5375,1.47968 -1.36697,0.0851 -2.8426,0.20175 -3.27916,0.25927 -0.43657,0.0575 -4.60376,0.1651 -9.26042,0.23908 -16.64314,0.26447 -22.74139,0.48178 -26.85521,0.95699 -7.17191,0.82847 -12.71699,2.44055 -19.70413,5.72847 -6.30721,2.96794 -7.94902,3.52407 -9.06931,3.07203 z m 159.6099,-13.10775 c -1.15072,-0.65736 -1.93344,-2.33739 -1.96424,-4.21606 -0.0322,-1.96215 1.17496,-5.62882 3.16733,-9.62075 2.32074,-4.64982 2.31333,-4.6377 5.89142,-9.62007 1.63457,-2.27605 3.96597,-5.68608 5.18091,-7.57785 1.21495,-1.89177 2.43258,-3.76219 2.70585,-4.15647 0.27328,-0.39428 0.49686,-0.78362 0.49686,-0.86516 0,-0.0815 0.3194,-0.65191 0.70982,-1.26749 1.36837,-2.15765 4.77367,-8.76961 6.64022,-12.89317 1.68781,-3.72869 4.17418,-10.57743 5.20203,-14.32917 0.21299,-0.77745 0.5725,-2.06838 0.79888,-2.86875 1.52657,-5.39697 1.34665,-12.22063 -0.46088,-17.47964 -1.19221,-3.46877 -2.60789,-5.76138 -5.00044,-8.09795 -3.58425,-3.50041 -6.27872,-4.12186 -14.02646,-3.23506 -2.47801,0.28361 -2.60273,0.27244 -3.68011,-0.32969 -1.71662,-0.95941 -1.8464,-1.3611 -0.7914,-2.44957 1.22534,-1.26423 5.51516,-3.3151 14.36285,-6.86652 4.11965,-1.65362 8.61955,-3.57436 9.99975,-4.26831 2.43392,-1.22378 7.53771,-4.40836 8.07386,-5.03783 0.14552,-0.17084 0.71144,-0.64047 1.25762,-1.04362 0.98168,-0.72461 1.0156,-0.72961 2.9772,-0.43786 7.57822,1.12713 12.27203,5.63092 14.6495,14.05647 0.43114,1.52797 0.86709,3.43297 0.96877,4.23333 0.10168,0.80037 0.22154,1.65275 0.26639,1.89418 0.31231,1.68193 0.38825,8.48572 0.13681,12.26103 -0.35854,5.38398 -0.4431,6.17979 -1.11032,10.45104 -0.77565,4.96544 -1.20656,8.44357 -2.36009,19.05 -0.13451,1.23693 -0.2953,2.62615 -0.35729,3.08716 -0.062,0.46101 -0.5221,1.47304 -1.02251,2.24896 -1.05976,1.64327 -6.69229,7.28588 -9.18837,9.2048 -2.93277,2.25465 -10.94063,8.2599 -13.40054,10.0493 -2.3282,1.6936 -4.47691,3.26046 -7.76613,5.66306 -7.49575,5.47529 -11.80287,9.39287 -15.05696,13.69518 -1.50693,1.99236 -3.39651,5.36604 -3.8812,6.92957 -0.62476,2.01536 -1.97524,4.16507 -2.60535,4.14726 -0.15653,-0.004 -0.52274,-0.14409 -0.81378,-0.31035 z m -156.76563,-0.39844 c -1.03158,-0.37925 -11.3083,-4.37843 -11.77396,-4.58184 -0.29104,-0.12713 -1.71979,-0.72512 -3.175,-1.32887 -13.06486,-5.42039 -23.86355,-11.25739 -33.60208,-18.16283 -4.3344,-3.07345 -5.73593,-4.10204 -8.58165,-6.29817 -6.69694,-5.16821 -11.13217,-9.11076 -18.14571,-16.12998 -7.36138,-7.36734 -10.90953,-11.43354 -16.74682,-19.19189 -10.41605,-13.84398 -20.07029,-31.04052 -25.47439,-45.37604 -0.43886,-1.16417 -0.89007,-2.29526 -1.00269,-2.51355 -0.25287,-0.49011 -3.47453,-10.15121 -3.74976,-11.24479 -0.10987,-0.43656 -0.63133,-2.2225 -1.15878,-3.96875 -1.24544,-4.12329 -2.53836,-9.86647 -2.88884,-12.83229 -0.30642,-2.59297 -0.47917,-3.89265 -0.58906,-4.43177 -0.0667,-0.32742 -10e-6,-0.59531 0.14828,-0.59531 0.14829,0 0.24627,0.0893 0.21772,0.19844 -0.11711,0.44772 1.45863,5.11836 3.50259,10.38198 0.5323,1.37078 3.64418,7.72427 5.05545,10.32166 5.51403,10.14841 13.14051,19.11488 21.59254,25.3864 2.66141,1.9748 7.17771,4.9253 10.91174,7.12864 1.52797,0.9016 2.95672,1.74752 3.175,1.87979 0.21828,0.13229 2.95672,1.71812 6.08542,3.52406 4.96249,2.86446 10.13472,5.95427 11.37708,6.79646 0.21828,0.14798 1.39535,0.93015 2.6157,1.73816 5.41678,3.58645 8.82389,6.44707 9.92683,8.33456 0.49559,0.84812 0.49559,0.85897 0,0.65156 -9.18025,-3.84196 -20.08092,-3.82035 -23.12208,0.0459 -0.29373,0.3734 -0.71323,1.28225 -0.9322,2.01962 -0.68704,2.31349 0.14593,5.43231 2.89679,10.84627 3.66836,7.21969 8.97278,13.53741 16.0233,19.08424 1.81901,1.43105 3.84307,3.03255 4.49791,3.55888 2.38972,1.92072 4.6979,3.56532 8.46667,6.03258 2.25405,1.47564 9.34171,5.14922 10.58333,5.4854 0.36381,0.0985 0.89959,0.28329 1.19063,0.41063 0.83817,0.36674 4.38199,1.49053 5.68854,1.80393 0.65484,0.15706 1.84547,0.43879 2.64583,0.62603 2.49079,0.58277 6.40987,0.39193 8.86355,-0.43161 3.58967,-1.20481 7.68196,-3.47938 10.68748,-5.9403 4.55853,-3.73253 7.71916,-7.76758 14.16151,-18.07943 2.98177,-4.77271 6.9819,-10.4291 9.40602,-13.30057 0.36849,-0.43651 2.09874,-2.22877 3.84499,-3.98286 3.88471,-3.9021 7.50676,-6.75462 11.64166,-9.16834 1.35552,-0.79126 7.35932,-3.79357 8.33438,-4.16774 0.50932,-0.19545 1.28323,-0.50551 1.71979,-0.68903 0.92438,-0.38857 7.27257,-2.49798 7.82641,-2.60062 0.20662,-0.0383 0.85192,-0.21042 1.43401,-0.38256 1.29748,-0.38364 7.14018,-1.74519 9.12812,-2.12711 3.26755,-0.62781 8.03619,-1.07617 11.50938,-1.08215 3.03847,-0.005 9.31013,0.4944 11.50937,0.91694 0.36381,0.0699 1.13771,0.18534 1.7198,0.25651 0.58208,0.0712 1.89177,0.31287 2.91041,0.53703 1.01865,0.22418 2.20927,0.47728 2.64584,0.56245 4.94501,0.96483 13.14775,4.14848 16.94159,6.57537 6.12526,3.9183 9.8485,11.1529 8.86796,17.23131 -1.24574,7.72231 -6.349,13.73558 -17.60747,20.74728 -2.26166,1.40853 -11.89887,6.34526 -12.38687,6.34526 -0.0908,0 -0.79377,0.28623 -1.56207,0.63606 -1.72098,0.78364 -7.322,2.97854 -8.93752,3.50242 -0.65484,0.21235 -1.42875,0.49432 -1.71979,0.62659 -1.59893,0.7267 -9.80355,3.1515 -12.94588,3.82606 -0.8705,0.18687 -11.6092,2.91441 -15.09996,3.83524 -6.06661,1.60036 -11.43442,3.24919 -21.56354,6.62371 -14.43819,4.81007 -17.8384,6.08523 -23.09405,8.66092 -1.86043,0.91176 -3.40824,1.64836 -3.43959,1.63687 -0.0313,-0.0114 -0.23558,-0.0865 -0.45386,-0.16679 z m 215.98499,-32.14142 c -0.78507,-0.37955 -1.22737,-1.56427 -1.03759,-2.77919 0.13468,-0.86217 0.60428,-5.86499 1.088,-11.59068 0.0738,-0.87312 0.1896,-2.06375 0.25738,-2.64583 0.0678,-0.58209 0.19008,-1.9513 0.27168,-3.04271 0.0816,-1.09141 0.20113,-2.40109 0.26564,-2.91042 0.0645,-0.50932 0.18391,-1.75948 0.26538,-2.77812 0.47273,-5.91114 0.81033,-9.2142 1.18991,-11.64167 1.54934,-9.90841 2.00173,-19.96149 1.203,-26.73419 -0.39901,-3.38352 -0.42105,-3.51247 -1.06878,-6.25218 -2.28608,-9.66965 -8.41494,-16.4161 -16.79893,-18.49173 -2.48031,-0.61405 -4.55197,-0.69215 -6.51615,-0.24561 -0.71348,0.16219 -1.77348,0.40198 -2.35556,0.53287 -0.58209,0.13089 -2.12479,0.48892 -3.42824,0.79565 -4.18007,0.98367 -6.64652,0.66667 -8.2029,-1.05426 -0.44199,-0.48871 -0.46154,-0.6096 -0.13229,-0.81785 0.21248,-0.13441 0.54184,-0.24622 0.73191,-0.24844 0.5015,-0.006 3.27782,-1.42113 4.74369,-2.41816 3.5414,-2.40864 9.48759,-8.13949 13.42131,-12.93524 2.56529,-3.12743 7.53782,-8.03598 10.08706,-9.95728 2.42411,-1.82698 6.41334,-4.23392 8.57633,-5.17459 0.80037,-0.34809 2.28865,-0.77957 3.30729,-0.95885 1.01865,-0.17931 2.48137,-0.46146 3.25052,-0.62706 2.50962,-0.54028 7.48979,0.41471 10.65903,2.04393 3.08313,1.58499 6.26475,4.57438 8.53122,8.01582 1.15456,1.75307 3.88528,6.87787 3.88528,7.29157 0,0.0932 0.23577,0.67421 0.52395,1.29109 1.18226,2.53087 4.24424,12.43401 5.45716,17.64982 0.82233,3.53621 0.864,3.76526 1.0627,5.84049 l 0.16576,1.73125 -3.03522,4.48763 c -1.66936,2.46819 -3.23561,4.84431 -3.48054,5.28023 -0.24492,0.43593 -0.65005,1.11337 -0.90029,1.50546 -1.41698,2.22012 -6.93727,11.36353 -6.93727,11.49035 0,0.0828 -0.21916,0.46654 -0.487,0.8528 -0.26786,0.38627 -0.97062,1.59528 -1.56167,2.68669 -0.59108,1.0914 -1.57192,2.87734 -2.17964,3.96875 -1.08532,1.94916 -6.09044,12.03814 -6.09044,12.27672 0,0.067 -0.35719,0.89347 -0.79375,1.83668 -0.43657,0.94319 -0.79375,1.79147 -0.79375,1.88505 0,0.0936 -0.22323,0.66964 -0.4961,1.28014 -0.27284,0.61047 -1.00089,2.47917 -1.61787,4.15266 -0.61698,1.67349 -1.21793,3.28083 -1.33546,3.57187 -0.1175,0.29105 -0.41407,1.12448 -0.65905,1.85209 -0.24498,0.7276 -0.53986,1.56104 -0.65532,1.85208 -0.23572,0.59431 -0.39071,1.0613 -1.5366,4.63021 -0.44386,1.38245 -1.05674,3.40651 -1.36194,4.49792 -0.30519,1.0914 -0.72284,2.57968 -0.92813,3.30729 -0.20526,0.7276 -0.56115,2.27541 -0.79087,3.43958 -0.35311,1.78972 -0.54819,2.22906 -1.26283,2.84427 -0.88942,0.76565 -1.54627,0.87418 -2.50002,0.4131 z m -218.63082,-53.38152 c -3.06368,-3.36097 -6.42802,-8.76234 -7.26019,-11.65606 -0.10462,-0.3638 -0.3559,-1.02939 -0.55841,-1.47907 -0.84382,-1.87383 -2.10141,-7.629 -2.76993,-12.67614 -0.35873,-2.70835 -0.46677,-11.01561 -0.17721,-13.62604 0.54187,-4.88503 1.6471,-11.26506 2.31463,-13.36146 0.96179,-3.02051 1.35189,-4.17211 1.92696,-5.68854 0.68963,-1.81853 2.32752,-5.59969 3.66752,-8.46667 0.4421,-0.94588 1.3708,-2.96994 2.06378,-4.49791 0.69298,-1.52797 1.93942,-4.26641 2.76986,-6.08542 0.83045,-1.81901 1.92228,-4.25979 2.42628,-5.42396 1.01972,-2.35537 2.72642,-5.75192 5.38437,-10.71562 0.97405,-1.81901 2.402,-4.49792 3.17325,-5.95313 0.77125,-1.45521 1.48929,-2.76489 1.59565,-2.91041 0.10637,-0.14553 0.75728,-1.33615 1.44647,-2.64584 0.68918,-1.30969 1.34408,-2.50031 1.45531,-2.64583 0.11124,-0.14552 0.64149,-1.09802 1.17834,-2.11667 0.53685,-1.01864 1.18706,-2.20927 1.44491,-2.64583 0.25785,-0.43656 0.86246,-1.50813 1.34358,-2.38125 0.48113,-0.87313 1.09604,-1.90354 1.36647,-2.2898 0.27043,-0.38627 0.49169,-0.76822 0.49169,-0.84879 0,-0.18875 4.04229,-6.87065 6.38885,-10.56075 0.99728,-1.56828 1.81324,-2.91407 1.81324,-2.99064 0,-0.0766 0.51694,-0.93656 1.14876,-1.91108 1.42735,-2.20154 3.60821,-5.90408 5.01769,-8.51873 0.58835,-1.09141 1.34658,-2.4285 1.68496,-2.97131 0.33839,-0.54281 0.61525,-1.04905 0.61525,-1.12498 0,-0.0759 0.69952,-1.35822 1.55448,-2.84953 0.85496,-1.49131 1.94987,-3.54491 2.43313,-4.56356 0.48327,-1.01864 1.32999,-2.59574 1.88161,-3.50466 1.47342,-2.42781 5.77245,-11.04901 5.77245,-11.57598 0,-0.0651 0.29158,-0.74677 0.64795,-1.51473 0.35638,-0.76796 1.08517,-2.46786 1.61955,-3.77755 0.84611,-2.0737 2.81914,-6.62325 3.55704,-8.20208 0.52164,-1.11611 1.27817,-3.507 1.60888,-5.08465 0.18968,-0.90479 0.38266,-1.60725 0.42889,-1.56103 0.14425,0.14426 1.07346,6.24076 1.41615,9.29151 0.4155,3.69884 0.42273,14.04155 0.0122,17.33021 -0.75575,6.05258 -1.95686,11.80869 -2.95366,14.15521 -0.12364,0.29104 -0.40086,1.07375 -0.61604,1.73936 -0.33454,1.03477 -2.63801,6.96434 -3.33285,8.57939 -0.12522,0.29104 -0.78392,1.95792 -1.46378,3.70417 -0.67985,1.74625 -1.46358,3.67972 -1.74161,4.29659 -0.27802,0.61688 -0.5055,1.20339 -0.5055,1.30336 0,0.35059 -2.46064,6.33113 -3.60573,8.76364 -0.63622,1.35154 -1.15677,2.51813 -1.15677,2.59242 0,0.0743 -1.14747,2.48083 -2.54993,5.34786 -1.40246,2.86704 -3.1137,6.40342 -3.80276,7.85863 -0.68906,1.45521 -1.90881,4.01505 -2.71056,5.68854 -2.09912,4.38148 -4.32748,9.55181 -6.28892,14.59177 -1.44139,3.70372 -2.00734,5.36443 -3.81855,11.20511 -1.90081,6.12962 -3.21637,10.67485 -3.41011,11.78176 -0.0644,0.36809 -0.24218,1.14199 -0.395,1.71979 -0.15283,0.5778 -0.39896,1.7649 -0.54696,2.63803 -0.148,0.87312 -0.41571,2.42094 -0.59491,3.43958 -0.18539,1.05386 -0.33238,4.27517 -0.34104,7.47416 -0.0141,5.20851 -0.10277,6.07267 -0.54904,5.35062 -0.27684,-0.44794 -4.71688,-2.58093 -5.83578,-2.8035 -2.16158,-0.42997 -5.0611,0.1456 -7.08945,1.40732 -1.0245,0.63728 -3.16854,2.67422 -4.19312,3.9837 -1.54838,1.97892 -3.67579,7.13965 -4.33493,10.51584 -0.0569,0.2916 -0.24589,1.24457 -0.4199,2.1177 -0.39938,2.0039 -0.39607,12.12238 0.005,14.2875 0.1616,0.87312 0.36067,1.94468 0.44237,2.38125 0.0817,0.43656 0.4871,2.46062 0.9009,4.49791 0.4138,2.0373 0.67794,3.77561 0.58696,3.86292 -0.091,0.0873 -0.344,-0.0372 -0.56228,-0.27665 z m 54.77716,-3.55592 c -0.005,-0.12882 -0.30189,-1.67664 -0.66058,-3.43958 -0.89595,-4.40349 -2.72983,-14.55746 -2.9204,-16.16993 -0.086,-0.72761 -0.21018,-1.62058 -0.27597,-1.98438 -0.33301,-1.8416 -0.91647,-7.23246 -1.20652,-11.14764 -0.392,-5.2914 -0.098,-10.7728 1.09086,-20.33778 0.13565,-1.0914 0.31506,-2.87734 0.39869,-3.96875 0.0836,-1.0914 0.20513,-2.24096 0.27002,-2.5546 0.0649,-0.31361 0.13157,-1.47447 0.14819,-2.57969 0.0166,-1.10519 0.13624,-2.00946 0.26583,-2.00946 0.1296,0 0.23587,0.20836 0.23615,0.46303 10e-4,1.04454 2.31314,9.54211 3.47337,12.76614 0.44513,1.23693 0.998,2.78474 1.2286,3.43958 0.57837,1.64243 2.16763,4.70366 3.02663,5.82983 l 0.71316,0.93501 -0.38288,3.16604 c -0.8504,7.03143 -0.95671,8.81258 -0.78917,13.22017 0.0941,2.47385 0.21878,4.91463 0.2772,5.42395 0.0584,0.50933 0.35306,3.11166 0.65477,5.78298 l 0.54856,4.85693 -1.15171,1.23126 c -1.16372,1.24412 -2.63804,3.39429 -3.59597,5.24447 -0.61231,1.18263 -1.33681,2.16688 -1.34883,1.83242 z m 58.19993,-8.01724 c -0.80037,-0.0461 -2.22912,-0.21326 -3.175,-0.37143 -0.94589,-0.15816 -2.07698,-0.33395 -2.51355,-0.3906 -3.75076,-0.48673 -10.33796,-2.69801 -15.01418,-5.04018 -7.93488,-3.97431 -14.74411,-9.82573 -20.74701,-17.82861 -1.21679,-1.62218 -4.0586,-5.9918 -4.0586,-6.24059 0,-0.088 -0.22572,-0.47702 -0.50162,-0.86447 -0.63892,-0.89728 -3.72179,-7.04154 -4.6658,-9.2991 -1.12083,-2.68047 -3.04713,-8.0286 -3.57367,-9.92188 -0.12142,-0.43656 -0.52745,-1.86531 -0.9023,-3.175 -1.18367,-4.13565 -1.85786,-7.39513 -2.54477,-12.30312 -1.82774,-13.0592 -1.14202,-25.60541 2.19083,-40.08438 0.30147,-1.30969 0.63614,-2.8575 0.74371,-3.43958 0.10758,-0.58208 0.49708,-2.54662 0.86559,-4.36563 0.36848,-1.81901 0.72652,-3.60494 0.7956,-3.96875 0.0691,-0.3638 0.60452,-3.04271 1.18988,-5.95312 1.07718,-5.35575 2.74715,-14.07865 3.22916,-16.86719 0.63821,-3.69209 0.85387,-4.91099 1.08842,-6.15156 0.64212,-3.39603 0.97761,-8.73554 0.88942,-14.15521 -0.0509,-3.1287 -0.15523,-6.10526 -0.23182,-6.61458 -0.0766,-0.50933 -0.32825,-2.65245 -0.55925,-4.7625 -0.40982,-3.74335 -1.06342,-7.90085 -1.87177,-11.90625 -0.40254,-1.99455 -2.35834,-9.66358 -2.67475,-10.48816 -0.28763,-0.74956 1.36432,0.34578 3.44778,2.28607 4.34242,4.04406 9.36869,11.82677 11.87574,18.38854 1.46855,3.84372 3.29719,9.95132 4.04003,13.49375 0.21363,1.01865 0.44678,2.09021 0.51814,2.38125 0.0714,0.29105 0.56121,2.55323 1.08852,5.02709 2.02377,9.49447 3.16656,12.97873 5.72741,17.4625 1.46439,2.56399 1.59663,2.77928 3.07866,5.012 2.09619,3.15793 2.05214,2.86508 0.57489,3.8223 -1.797,1.16442 -5.00782,4.83806 -7.96483,9.11291 -3.40267,4.91911 -5.17427,8.77684 -6.60194,14.37591 -1.20189,4.71375 -1.22698,5.43991 -0.38208,11.06855 0.30927,2.0605 1.2669,5.3159 2.10619,7.16 0.64603,1.41941 1.07921,2.00337 1.80284,2.43033 l 0.95253,0.56199 0.86984,-0.58619 c 1.53612,-1.0352 1.59311,-1.47597 0.54634,-4.22487 -1.74501,-4.58241 -1.94313,-5.54807 -1.96443,-9.5746 -0.0169,-3.21436 0.0737,-4.05403 0.68607,-6.35 0.66191,-2.48168 3.37026,-8.62506 3.88813,-8.81944 0.12925,-0.0485 0.23498,-0.20236 0.23498,-0.3419 0,-0.13953 0.12491,-0.3975 0.27757,-0.57326 0.15267,-0.17576 0.65868,-0.87708 1.12448,-1.55848 0.4658,-0.68141 1.66248,-2.37302 2.65933,-3.75915 l 1.81239,-2.52023 0.62725,0.74543 c 0.74295,0.88294 1.71352,2.7666 2.47296,4.79939 1.99731,5.34642 2.35537,13.36871 1.08003,24.19848 -0.57497,4.88234 -0.81156,7.02918 -1.06434,9.65729 -0.14698,1.52797 -0.34013,3.25437 -0.42924,3.83646 -0.19293,1.26036 -0.18875,9.67012 0.006,10.94991 0.0748,0.49265 0.20783,2.39765 0.2957,4.23333 0.0879,1.83568 0.20717,3.9329 0.26509,4.66051 0.0579,0.7276 0.1747,2.45401 0.25953,3.83645 0.33337,5.43439 1.15554,11.20347 2.12857,14.93597 2.59093,9.93884 6.53579,17.87668 13.98836,28.14746 0.98571,1.35845 1.74837,2.51373 1.69479,2.56728 -0.34515,0.34515 -6.44522,-3.57754 -12.11987,-7.79373 -1.81068,-1.34532 -5.76184,-4.45484 -6.08219,-4.78663 -0.0728,-0.0753 -0.78714,-0.67066 -1.5875,-1.32294 -1.27895,-1.04227 -6.52979,-5.88269 -10.83212,-9.98543 -1.39751,-1.33265 -2.13429,-1.6316 -2.87034,-1.16461 -0.25431,0.16134 -0.27278,0.39566 -0.0727,0.92199 0.14756,0.38809 0.20077,0.70564 0.11827,0.70564 -0.0825,0 0.28723,0.80368 0.82169,1.78594 1.06945,1.96562 3.67022,4.77446 6.74976,7.28978 1.09141,0.89146 2.04391,1.68465 2.11667,1.76265 0.41571,0.44572 10.67046,8.9566 12.30595,10.21329 1.86045,1.42951 6.46766,4.37393 8.68971,5.55344 3.41959,1.8152 8.24313,3.8099 9.23298,3.81813 0.25467,0.003 0.46303,0.12292 0.46303,0.26844 0,0.25035 -3.04457,0.2885 -6.61459,0.0829 z m -25.80934,-36.37328 c 1.34334,-0.61206 0.68328,-1.75969 -2.56249,-4.45545 -1.31411,-1.09141 -2.66433,-2.28203 -3.00054,-2.64584 -1.68066,-1.81869 -2.52531,-2.89578 -3.45765,-4.4092 -0.86482,-1.40382 -1.13737,-1.65883 -1.78139,-1.66679 -0.76015,-0.01 -0.76033,-0.009 -0.64053,1.43571 0.22921,2.76394 3.21927,7.52186 6.3745,10.14346 2.18218,1.81308 3.60889,2.26295 5.0681,1.59811 z m -2.49743,-14.11714 c 0.35586,-0.42878 0.33626,-0.46394 -2.30706,-4.14168 -0.69766,-0.97065 -1.97358,-2.75659 -2.83538,-3.96875 -3.22067,-4.53001 -4.22799,-5.7758 -4.6703,-5.7758 -2.21601,0 0.67758,7.59121 4.4445,11.65995 2.04142,2.20496 4.52956,3.23683 5.36824,2.22628 z m -2.2207,-14.53541 c 0.19555,-0.50959 -0.64016,-2.69592 -2.27825,-5.96019 -1.53059,-3.05006 -4.44272,-8.02884 -5.26566,-9.00253 l -0.55779,-0.65997 -0.48776,0.57349 c -1.57382,1.85042 2.02136,11.68256 5.29701,14.48638 0.85429,0.73125 1.33935,0.94742 2.12585,0.94742 0.64725,0 1.07286,-0.14031 1.1666,-0.3846 z m -70.8741,64.50396 c -0.6188,-0.1724 -0.58343,-0.47424 0.14093,-1.20264 1.01123,-1.01692 1.33096,-2.14275 1.14683,-4.03825 -0.0914,-0.94033 -0.2734,-1.98181 -0.40456,-2.31439 -1.11254,-2.82088 -1.60202,-3.80037 -2.87843,-5.75998 -1.91891,-2.946 -2.60248,-4.57528 -2.67555,-6.37715 -0.0533,-1.31445 0.0372,-1.60475 0.81714,-2.61985 1.23004,-1.60102 4.2364,-3.11134 5.99396,-3.01122 3.96439,0.22579 7.23032,3.829 8.00267,8.82912 0.47633,3.08366 0.0746,6.91369 -0.99907,9.525 -1.47026,3.57584 -4.08184,6.28975 -6.50794,6.76296 -1.3346,0.2603 -2.19942,0.328 -2.63598,0.2064 z m 258.44048,-1.85912 c -1.04021,-0.5629 -1.30458,-0.84852 -1.92929,-2.08412 -1.09439,-2.16464 -1.98839,-5.36766 -4.29117,-15.37412 -0.84299,-3.66316 -3.70631,-12.07138 -5.61599,-16.49159 -3.6944,-8.55112 -7.18788,-14.11427 -11.72408,-18.66995 -3.93835,-3.95525 -8.23275,-6.53611 -12.29913,-7.39148 -2.6774,-0.56322 -6.54746,-0.50443 -9.12821,0.13867 -4.77316,1.18943 -8.26027,3.0657 -16.6153,8.93998 -10.47092,7.3619 -12.13523,8.36324 -14.39987,8.66365 -1.55464,0.20624 -2.26994,-0.0956 -2.97538,-1.25566 l -0.49244,-0.80976 1.09972,-0.83878 c 3.95538,-3.01688 7.56602,-11.60568 9.96394,-23.70167 0.41831,-2.11005 0.82494,-4.01505 0.90363,-4.23333 0.0787,-0.21828 0.20299,-0.69453 0.27617,-1.05833 0.78296,-3.89252 3.33682,-11.1596 5.34898,-15.22071 3.67062,-7.40839 8.187,-11.87858 13.72481,-13.58441 3.84892,-1.1856 4.69122,-1.31936 7.79595,-1.23795 1.67349,0.0439 3.30293,0.1457 3.62095,0.22627 2.29733,0.58204 3.99807,1.0599 4.44884,1.24998 0.29104,0.12273 0.82682,0.30509 1.19063,0.40524 1.18684,0.32673 7.54443,3.44894 10.21934,5.01872 3.59349,2.10885 7.27893,4.6013 11.34631,7.67353 6.84761,5.17222 8.24069,6.46857 11.36359,10.57454 1.18912,1.5634 1.45442,2.12351 1.70223,3.59354 0.6082,3.60823 0.25442,10.21839 -0.89173,16.66113 -0.21865,1.2292 -0.44987,2.53257 -0.51379,2.89637 -0.24045,1.36832 -0.87109,6.14807 -1.36144,10.31875 -0.42598,3.62294 -0.82585,11.88762 -0.76168,15.74271 0.13094,7.86788 0.5145,11.45029 2.13677,19.95667 0.40497,2.12339 0.62706,4.24818 0.62706,5.99898 0,2.53058 -0.0456,2.76521 -0.68498,3.52509 -0.7775,0.92401 -0.98827,0.96121 -2.08444,0.36804 z m -147.59165,-22.77118 c -0.0758,-0.40018 -0.38775,-1.8587 -0.69326,-3.24115 -0.58497,-2.6471 -0.94803,-4.74421 -1.35128,-7.8052 -0.1342,-1.01865 -0.29652,-2.14974 -0.36073,-2.51355 -0.1234,-0.69913 -0.26861,-2.24911 -0.70186,-7.49265 -0.3066,-3.71023 -0.29052,-13.60141 0.0272,-16.71672 0.11872,-1.16417 0.28419,-2.89057 0.36771,-3.83646 0.21887,-2.47864 0.95692,-7.68133 1.46381,-10.31875 0.12586,-0.65484 0.37052,-2.14312 0.54369,-3.30729 0.37521,-2.52244 1.45397,-7.00034 2.00298,-8.31429 0.45651,-1.09259 1.36705,-2.13675 1.86333,-2.13675 0.19013,0 0.415,0.32742 0.49969,0.7276 0.29279,1.38357 1.25441,4.1609 1.99035,5.74849 1.79546,3.87319 5.92259,8.39884 9.01406,9.88444 l 1.68397,0.80923 0.17923,-3.49165 c 0.24958,-4.8623 0.68358,-7.54543 2.16964,-13.41353 1.71058,-6.75474 3.00701,-11.1125 3.30594,-11.1125 0.58645,0 2.42088,3.38563 3.73086,6.88573 0.46162,1.23331 0.93808,2.48052 1.05881,2.77156 0.12076,0.29104 0.49189,1.24354 0.82476,2.11667 1.39253,3.65279 2.85343,6.22719 4.15549,7.32281 0.61722,0.51935 0.76007,0.81861 0.65448,1.37104 -0.0743,0.38867 -0.23995,0.77147 -0.36809,0.85067 -0.12814,0.0792 -0.23299,0.37671 -0.23299,0.66114 0,0.28443 -0.11272,0.72389 -0.25048,0.97658 -0.78198,1.43438 -2.27664,7.04927 -3.29171,12.36568 -0.58669,3.07279 -0.78253,4.90487 -1.35774,12.7 -0.22622,3.06599 -0.83923,5.52931 -1.9753,7.9375 -1.50114,3.18209 -1.54511,3.21915 -2.58985,2.18241 -1.46304,-1.45185 -4.9939,-7.1614 -7.37925,-11.93252 -1.98115,-3.96264 -4.70588,-8.71887 -5.7136,-9.9735 -0.51784,-0.64471 -1.59192,-1.31077 -2.11376,-1.31077 -0.26625,0 -0.58885,0.29461 -0.73048,0.66715 -0.27684,0.72816 -1.18338,5.31423 -1.45497,7.36044 -0.0935,0.70438 -0.21246,1.50141 -0.26443,1.7712 -0.052,0.26977 -0.16999,1.24127 -0.2623,2.15887 -0.0923,0.9176 -0.27051,2.62088 -0.39598,3.78505 -0.12549,1.16417 -0.20846,6.54042 -0.18439,11.94721 l 0.0438,9.83054 -1.05486,1.24986 c -0.58018,0.68742 -1.32504,1.77033 -1.65526,2.40644 -0.69469,1.33824 -1.00394,1.44907 -1.19714,0.42897 z m -162.92975,-17.63191 c -0.0595,-0.0545 -0.97482,-0.16889 -2.03408,-0.25419 -1.05927,-0.0853 -2.42849,-0.28731 -3.04271,-0.44894 -0.61423,-0.16161 -1.53349,-0.40238 -2.04281,-0.53502 -5.11241,-1.33154 -8.74197,-2.94441 -10.43423,-4.63666 -0.66409,-0.66411 -1.20744,-1.3103 -1.20744,-1.43597 0,-0.12568 1.27992,-0.22382 2.84427,-0.21805 2.61157,0.01 3.51186,-0.12197 7.34219,-1.07307 0.58208,-0.14454 2.07036,-0.77417 3.30729,-1.39922 6.39862,-3.23326 9.67499,-9.92807 9.16553,-18.72843 -0.0912,-1.57503 -0.23797,-3.05183 -0.32619,-3.28173 -0.1046,-0.27257 0.31451,-0.94919 1.20477,-1.94495 2.26097,-2.52893 3.18506,-5.37022 3.18506,-9.79311 0,-5.71527 -2.77438,-15.25216 -5.66133,-19.46071 -0.37877,-0.55216 -0.68867,-1.05289 -0.68867,-1.11273 0,-0.0598 -0.26789,-0.50148 -0.59532,-0.98145 -2.53451,-3.71529 -5.18867,-6.56138 -8.79739,-9.43356 -9.67092,-7.6971 -14.00621,-12.33411 -16.60731,-17.76311 -2.56183,-5.34704 -2.66339,-11.53767 -0.27779,-16.93334 1.79339,-4.05622 2.99622,-5.86956 5.61931,-8.47146 6.34998,-6.29867 15.65793,-6.62184 26.97783,-0.93664 2.63138,1.32155 7.29911,4.28153 8.02614,5.08967 0.38266,0.42534 0.44995,1.02865 0.42397,3.80107 -0.0485,5.17246 0.36403,6.34093 2.23613,6.33415 2.06558,-0.007 2.42843,-0.71246 2.17673,-4.22914 -0.10346,-1.44544 -0.0814,-2.64619 0.05,-2.72744 0.30921,-0.19111 2.82389,1.50323 3.4924,2.35311 1.0729,1.36396 0.93992,3.87993 -0.46728,8.84085 -0.97287,3.42978 -1.05841,4.05765 -0.65821,4.83155 0.72824,1.40826 2.22006,1.45934 3.5287,0.12083 0.82201,-0.84077 1.27433,-2.14368 1.85707,-5.34926 0.36961,-2.03315 0.70066,-2.86841 1.05105,-2.65186 0.12554,0.0776 0.71488,1.08621 1.30964,2.24138 1.77125,3.44021 1.52815,5.23602 -1.52652,11.27664 -0.74095,1.46524 -1.51646,3.31071 -1.72335,4.10104 l -0.37617,1.43697 0.81811,0.8599 c 0.8601,0.90403 1.86747,1.11096 2.84958,0.58535 0.90336,-0.48346 3.68078,-6.8088 3.68425,-8.39056 0.002,-0.80159 0.32706,-0.75012 0.83618,0.13229 1.34027,2.32298 1.41737,4.86805 0.23983,7.91637 -0.44015,1.13941 -1.10014,2.51182 -1.46665,3.0498 -0.36651,0.53799 -0.66639,1.09361 -0.66639,1.23472 0,0.14112 -0.0893,0.29626 -0.19843,0.34477 -0.58381,0.25947 -2.99651,4.71121 -3.45503,6.37497 -0.257,0.93255 -0.21952,1.05313 0.59637,1.91823 1.34134,1.42223 2.04073,1.28376 4.03277,-0.79844 0.90585,-0.94686 1.84438,-2.13749 2.08561,-2.64584 0.24122,-0.50834 0.54409,-0.92427 0.67303,-0.92427 0.12894,0 0.23872,0.0298 0.24397,0.0661 0.39819,2.76211 -0.0319,6.13963 -1.12721,8.85126 -0.78642,1.94698 -2.63262,5.07629 -4.57306,7.75134 -4.37239,6.02769 -5.88669,8.79671 -6.137,11.22197 -0.28498,2.76119 0.72342,4.73066 2.93686,5.73587 1.19378,0.54214 3.46696,0.65741 4.89391,0.24817 l 0.89432,-0.25649 -0.1522,1.47472 c -0.0895,0.86734 -0.53066,2.27164 -1.07111,3.40967 -0.93289,1.96439 -1.8889,3.04854 -6.75574,7.66129 -2.45793,2.32958 -3.10864,3.18706 -3.74988,4.94141 -1.0432,2.85409 -0.48137,5.46407 1.46302,6.79638 1.34717,0.9231 3.68565,1.44928 5.64461,1.27008 1.63054,-0.14915 1.66461,-0.1392 1.48758,0.43413 -0.62711,2.03091 -4.01687,5.87017 -6.765,7.66206 -3.15414,2.05666 -6.94917,3.7914 -10.28197,4.70001 -0.65484,0.17854 -1.48828,0.41614 -1.85208,0.52803 -0.81554,0.2508 -3.7328,0.78216 -5.15938,0.93972 -1.61818,0.17873 -7.17789,0.39177 -7.30019,0.27972 z m 152.95049,-16.36409 c -1.94432,-2.23326 -3.73364,-4.00983 -5.99483,-5.95225 -1.42853,-1.22711 -2.3641,-1.94683 -5.87404,-4.51892 l -0.89151,-0.65328 0.16163,-2.8067 c 0.0889,-1.54369 0.22863,-4.77124 0.31049,-7.17233 0.0818,-2.40109 0.20302,-4.62882 0.26924,-4.9505 l 0.12044,-0.58487 1.25434,0.54746 c 1.46031,0.63734 4.61348,1.81291 4.86272,1.81291 0.0941,0 0.19069,-2.53008 0.21468,-5.6224 0.0241,-3.09231 0.0806,-5.97958 0.12576,-6.41614 0.0452,-0.43656 0.16447,-2.04391 0.26514,-3.57188 0.40807,-6.19483 1.91725,-15.61041 2.50211,-15.61041 0.0902,0 0.46149,0.56292 0.82502,1.25094 0.72311,1.36845 3.05322,4.23406 4.46625,5.49266 1.74958,1.55835 4.68194,3.63996 6.05049,4.29508 0.76399,0.36571 1.38907,0.68437 1.38907,0.70814 0,0.0238 -0.39886,0.99209 -0.88636,2.15183 -4.2939,10.21531 -6.60691,22.80147 -7.19349,39.143 -0.0835,2.32431 -0.18608,4.2604 -0.22812,4.30242 -0.042,0.042 -0.8291,-0.78812 -1.74903,-1.84476 z m 70.62557,-0.95969 c -2.86665,-1.25635 -4.02026,-1.96578 -5.62644,-3.46009 -2.70068,-2.51262 -3.71115,-6.20937 -4.01781,-14.69932 -0.0683,-1.89178 -0.18467,-5.10555 -0.25855,-7.14173 -0.13612,-3.75282 -1.20517,-10.99879 -2.28388,-15.48015 -0.29774,-1.23693 -0.58364,-2.4606 -0.63532,-2.71927 -0.36562,-1.82959 -2.74359,-8.75108 -3.85648,-11.22495 -0.9357,-2.08002 -0.86048,-2.26324 1.08907,-2.65212 4.15198,-0.8282 7.95841,0.33338 11.28633,3.4442 1.55335,1.45201 3.79492,4.1379 3.79492,4.54714 0,0.0819 0.27702,0.59297 0.61561,1.13578 1.68627,2.70345 3.89827,9.10274 4.68532,13.55464 0.39635,2.24178 1.00327,6.57101 1.16845,8.33437 0.1887,2.01463 0.18799,9.61856 0,12.56771 -0.38359,5.97998 -2.42062,14.84987 -3.39949,14.80264 -0.15979,-0.008 -1.31202,-0.46169 -2.56051,-1.00885 z m -259.53525,-3.4117 c -3.56367,-0.3715 -9.38942,-2.07161 -13.42646,-3.91819 -0.77324,-0.35369 -1.44638,-0.64307 -1.49588,-0.64307 -0.0495,0 -1.68308,-0.75821 -3.63018,-1.68494 -8.35926,-3.97859 -12.93756,-5.78483 -16.95501,-6.68909 -2.45298,-0.55213 -8.98374,-0.62808 -11.05914,-0.12862 -1.7843,0.42942 -4.37767,1.29966 -5.36256,1.79949 -0.58719,0.298 -0.75499,0.30427 -0.84654,0.0317 -0.26404,-0.78621 -1.99898,-8.21836 -2.48815,-10.65874 -0.2917,-1.45521 -0.60204,-3.00303 -0.68965,-3.43959 -1.28771,-6.41665 -1.58905,-9.26754 -1.52191,-14.39837 0.10114,-7.73011 1.72752,-16.25491 4.87519,-25.55371 2.01862,-5.96335 5.0524,-13.35392 8.17742,-19.92091 0.71268,-1.49765 1.29579,-2.76949 1.29579,-2.82631 0,-0.0568 0.58182,-1.33179 1.29294,-2.83326 2.34248,-4.94598 6.38656,-14.22094 9.26579,-21.25077 0.89402,-2.18281 1.85313,-4.50453 2.13135,-5.15938 0.27823,-0.65484 1.06393,-2.61937 1.74602,-4.36562 0.68208,-1.74625 1.389,-3.53219 1.57094,-3.96875 0.18194,-0.43657 1.13046,-2.9964 2.10782,-5.68853 0.97737,-2.69214 1.88099,-5.13292 2.00805,-5.42396 0.30621,-0.70142 3.36703,-9.88627 3.96772,-11.90625 0.25964,-0.87313 0.79061,-2.59953 1.17995,-3.83646 0.38933,-1.23693 0.80443,-2.60615 0.92243,-3.04271 0.118,-0.43656 0.80778,-2.93687 1.53285,-5.55625 0.72507,-2.61938 1.71559,-6.369845 2.20116,-8.334376 l 0.88287,-3.571875 0.18687,1.455208 c 0.10279,0.800365 0.25748,2.229115 0.34378,3.175 0.44763,4.906623 0.71777,7.441343 0.95873,8.995833 0.14663,0.94589 0.31282,2.25557 0.36933,2.91042 0.43374,5.02685 0.53475,6.84538 0.52174,9.39271 l -0.0149,2.91041 -1.54126,2.38125 c -0.8477,1.30969 -2.12093,3.25443 -2.82941,4.32165 -0.70848,1.06722 -1.28815,1.97799 -1.28815,2.02393 0,0.046 -0.42997,0.72058 -0.9555,1.49919 -0.52553,0.77861 -1.06642,1.65378 -1.20198,1.94482 -0.13557,0.29104 -0.39021,0.76729 -0.56586,1.05833 -4.3998,7.29009 -7.21095,13.78314 -9.02273,20.8402 -0.36487,1.42118 -0.71895,2.67385 -0.78685,2.78371 -0.0679,0.10987 -0.19578,0.68466 -0.28417,1.27731 -0.0884,0.59265 -0.27632,1.48063 -0.41761,1.97328 -0.28562,0.99595 -0.67631,5.80153 -0.47164,5.80153 0.0715,0 0.92066,-1.10133 1.88693,-2.44739 5.12856,-7.14435 5.68295,-7.8262 8.77672,-10.79456 1.50848,-1.44734 2.21771,-2.07499 3.67762,-3.25458 0.56748,-0.45852 1.40092,-1.13486 1.85208,-1.50297 0.45116,-0.36811 1.5004,-1.18279 2.33164,-1.81039 0.83124,-0.62761 2.54356,-2.11236 3.80516,-3.29946 2.51779,-2.36911 2.70436,-2.4985 2.85775,-1.98192 0.0576,0.194 0.31279,1.05615 0.56707,1.91588 0.93307,3.15464 5.13012,10.49887 8.13786,14.24005 2.37162,2.94995 5.5158,6.53587 6.53149,7.4491 1.1162,1.00362 1.13048,1.03717 0.61909,1.45521 -2.48372,2.03037 -5.15159,7.28486 -6.13942,12.09187 -1.40954,6.85917 -0.92688,10.97392 2.03562,17.35389 l 1.06564,2.29493 -1.06194,0.42491 c -4.62543,1.85073 -9.06379,7.28462 -10.92358,13.37377 -1.32372,4.33396 -1.60252,5.75932 -1.57848,8.06979 0.0234,2.24727 0.13679,2.90678 1.1839,6.88449 0.45074,1.71228 0.7524,3.38073 0.67034,3.70767 -0.0821,0.32694 -1.08805,2.00651 -2.23553,3.73239 -3.03533,4.56526 -4.01654,7.49644 -3.8813,11.59456 0.22587,6.84414 5.42519,14.72996 11.62456,17.63101 0.96079,0.44961 1.74689,0.90229 1.74689,1.00592 0,0.17852 -2.80994,0.23797 -4.23334,0.0896 z m -23.73046,-50.20213 c 8.04626,-2.06135 12.20935,-10.98826 8.63713,-18.52059 -1.42458,-3.00383 -4.023,-5.22669 -7.52854,-6.44041 -1.25381,-0.43411 -5.43372,-0.88954 -5.7781,-0.62957 -0.16903,0.12759 -0.90263,0.44853 -1.63024,0.71318 -5.25595,1.9118 -7.88122,4.35495 -9.10514,8.47347 -1.01106,3.40228 -0.77943,6.03819 0.82448,9.38224 1.37567,2.8682 3.28587,4.82527 6.0317,6.1797 2.94466,1.45251 5.27117,1.68165 8.54871,0.84198 z m 35.30598,47.64829 c -0.69122,-0.18597 -1.25677,-0.30339 -1.25677,-0.26098 0,0.21093 -3.14087,-1.04476 -4.82961,-1.93082 -3.54491,-1.85997 -7.49657,-6.36792 -8.76779,-10.00207 -1.87788,-5.36846 0.18109,-12.40746 5.03896,-17.22666 l 1.43504,-1.42362 -0.96526,-2.84569 c -3.11173,-9.17367 -1.7229,-15.79428 4.66977,-22.26093 1.06312,-1.07542 3.32136,-3.15923 3.99184,-3.68351 0.38659,-0.30228 0.85736,0.0666 3.83646,3.00594 1.86769,1.84278 4.52689,4.19011 5.90934,5.2163 3.99361,2.96445 7.45314,5.86744 8.59707,7.21405 1.39201,1.63861 2.33025,3.23745 2.16008,3.68091 -0.0753,0.19631 -0.65128,0.44112 -1.27987,0.54402 -0.6286,0.1029 -2.05099,0.65619 -3.16088,1.22954 -7.13592,3.6863 -11.5654,14.28476 -10.11679,24.2065 0.40908,2.8018 0.6428,3.74425 1.38915,5.60167 1.17165,2.91585 3.28061,5.6723 5.54391,7.24602 1.2169,0.84613 1.1969,1.15297 -0.09,1.38025 -0.43656,0.0771 -1.43507,0.26228 -2.21892,0.41153 -1.97514,0.37611 -8.35268,0.31001 -9.88576,-0.10245 z m 259.33388,-7.0345 c -0.0225,-0.0728 -0.0831,-3.04932 -0.13481,-6.61458 -0.1103,-7.60327 -0.0366,-6.41243 -0.67169,-10.84792 -0.91287,-6.37475 -1.48683,-8.95932 -2.78503,-12.54097 -2.78014,-7.67008 -3.17307,-9.99623 -2.61909,-15.50486 0.92917,-9.2391 7.31756,-19.21864 15.1202,-23.61981 0.88527,-0.49935 1.8973,-0.97641 2.24896,-1.06012 4.56345,-1.08641 7.79478,-1.51597 11.34806,-1.50858 4.24598,0.009 10.51187,0.93694 15.08818,2.2349 0.80036,0.227 1.69333,0.4682 1.98437,0.53599 0.29105,0.0678 0.7673,0.23996 1.05834,0.38259 0.29104,0.14264 1.24354,0.49525 2.11666,0.78359 6.31759,2.08628 13.74484,6.04026 22.99656,12.24247 l 3.68199,2.46834 0.49922,1.85208 c 0.95059,3.5266 1.33389,4.7739 2.23596,7.27605 0.4984,1.38244 1.13864,3.01826 1.42277,3.63513 0.28417,0.61688 0.51663,1.20709 0.51663,1.31157 0,0.10449 1.18332,2.57633 2.62961,5.49299 3.27377,6.60204 4.30083,8.11714 10.82758,15.97245 3.10964,3.74264 5.32823,6.81332 5.32823,7.37468 0,0.17747 -0.20836,0.73621 -0.46302,1.24164 -0.69284,1.37509 -1.89495,1.56308 -4.42624,0.69219 -2.49439,-0.8582 -4.2581,-2.23225 -8.86908,-6.90964 -4.6501,-4.7171 -5.29053,-5.271 -10.84791,-9.38253 -13.31233,-9.84887 -24.51484,-14.65868 -34.13125,-14.65431 -1.52797,7.9e-4 -3.25438,0.11089 -3.83646,0.24489 -0.58209,0.134 -1.41552,0.30625 -1.85209,0.38277 -1.22465,0.21468 -4.07545,1.1905 -5.68854,1.94716 -5.3281,2.49926 -9.6217,6.33013 -13.0347,11.62988 -2.0162,3.13079 -3.16132,6.04721 -4.70281,11.97738 -0.74959,2.88367 -2.76931,8.95928 -3.5556,10.69567 -0.58748,1.29739 -1.40123,2.54072 -1.485,2.26891 z m -31.20978,-12.2668 c -1.62028,-0.34899 -3.98941,-1.46764 -5.01419,-2.36759 -2.05674,-1.80623 -3.25475,-3.88871 -5.83621,-10.14518 -1.82414,-4.42103 -2.28772,-5.31599 -6.14616,-11.86522 -1.74086,-2.95485 -4.18458,-7.00583 -6.3045,-10.45104 -1.8152,-2.94997 -5.63546,-8.51673 -7.96345,-11.60412 -3.79386,-5.03137 -10.09703,-11.65842 -13.49915,-14.19276 -0.97674,-0.7276 -1.74016,-1.43971 -1.69648,-1.58247 0.0437,-0.14275 0.96319,-0.54136 2.0434,-0.8858 1.83129,-0.58393 2.13387,-0.60738 4.47755,-0.34696 2.83485,0.31499 3.6641,0.46355 4.6233,0.82823 0.36758,0.13976 0.66836,0.19926 0.66836,0.13223 0,-0.14774 2.32868,0.7467 3.96875,1.52438 3.68319,1.74648 12.59361,8.67172 16.11501,12.52471 1.56678,1.7143 4.66143,5.76055 6.17577,8.07481 1.21907,1.86302 3.77544,6.84566 4.94011,9.62879 0.48718,1.16417 0.98769,2.35479 1.11226,2.64583 1.43605,3.35496 4.4155,14.48039 5.24341,19.57917 0.16539,1.01864 0.40999,2.50693 0.54356,3.30729 0.13353,0.80036 0.3107,1.99099 0.39364,2.64583 0.083,0.65485 0.22043,1.57758 0.30549,2.05052 l 0.15465,0.8599 -1.41851,-0.0222 c -0.78018,-0.0122 -2.07915,-0.16447 -2.88661,-0.33838 z m -32.66315,-19.25562 c -4.14825,-0.37918 -7.67721,-2.16699 -11.12179,-5.6344 -3.15251,-3.17342 -4.87738,-5.46673 -11.4272,-15.19306 -5.90674,-8.77138 -6.54282,-9.42079 -13.75762,-14.04585 -2.63398,-1.68853 -4.03799,-3.16069 -5.11638,-5.36471 -0.79827,-1.6315 -1.83639,-5.66379 -1.83639,-7.13287 v -0.74627 h 7.87527 c 7.52779,0 7.92163,0.0248 8.92583,0.56306 1.32172,0.7084 4.35311,3.19572 6.08536,4.99319 0.7276,0.75499 2.21589,2.10107 3.30729,2.99129 3.69441,3.01339 8.37859,7.94224 11.51861,12.12029 0.28596,0.38049 1.37758,1.8253 2.42581,3.2107 1.04822,1.38539 2.94955,4.05065 4.22515,5.92278 1.27561,1.87215 3.21887,4.59452 4.31838,6.04973 3.24847,4.29942 5.2933,7.86299 5.2933,9.22476 0,0.51286 -0.34811,0.81449 -1.85208,1.60481 -1.01865,0.53528 -1.85208,0.90303 -1.85208,0.81721 0,-0.0858 -0.25506,-0.0195 -0.56682,0.14732 -0.78941,0.42249 -4.22982,0.67447 -6.44464,0.47202 z m 52.55966,-10.81662 c -0.52064,-1.17627 -2.88787,-3.66398 -4.40549,-4.62974 -1.67093,-1.06331 -3.6856,-1.79462 -6.21393,-2.2556 l -1.98059,-0.36112 1.31913,-0.37861 c 0.72552,-0.20823 1.69431,-0.54103 2.15286,-0.73954 0.45858,-0.19851 0.91157,-0.36093 1.00672,-0.36093 0.0951,0 0.85741,-0.4648 1.69394,-1.03288 2.42911,-1.64957 3.46591,-3.56894 3.67366,-6.80079 0.35531,-5.5277 -2.92576,-12.4429 -9.32426,-19.65175 -1.86103,-2.09673 -8.18896,-6.51253 -13.75879,-9.60125 -1.4552,-0.80698 -3.83645,-2.12761 -5.29166,-2.93474 -2.52905,-1.40273 -11.10824,-5.75151 -11.34647,-5.75151 -0.0627,0 -1.28585,-0.5515 -2.71815,-1.22555 -6.71645,-3.16088 -17.88985,-7.75245 -23.37392,-9.60524 -0.94589,-0.31956 -1.95792,-0.68686 -2.24896,-0.81621 -0.29104,-0.12935 -2.19604,-0.78554 -4.23334,-1.4582 -2.03729,-0.67266 -4.65666,-1.56505 -5.82083,-1.98308 -1.16417,-0.41804 -3.36682,-1.19309 -4.89479,-1.72233 -8.08525,-2.8005 -13.57458,-4.80327 -15.25352,-5.56519 -0.45858,-0.2081 -0.91157,-0.37836 -1.00672,-0.37836 -0.0951,0 -0.68204,-0.23191 -1.30423,-0.51536 -0.62222,-0.28344 -1.74459,-0.75709 -2.49415,-1.05254 -4.48173,-1.76654 -9.8393,-5.17448 -9.8393,-6.25878 0,-0.7456 2.99053,-2.02337 7.01146,-2.99579 1.30969,-0.31673 3.33375,-0.82535 4.49792,-1.13025 1.16416,-0.30489 2.36368,-0.58499 2.66557,-0.62243 0.30189,-0.0374 1.19486,-0.19392 1.98437,-0.34775 0.78952,-0.15382 2.50704,-0.40951 3.81672,-0.56819 1.30969,-0.15869 3.21469,-0.38941 4.23334,-0.51273 4.54861,-0.55067 11.75496,-0.28974 15.21354,0.55084 3.21635,0.78172 4.26339,1.25859 5.62816,2.5634 1.16621,1.11493 1.41738,1.92687 1.64984,5.33333 0.0943,1.38245 0.28813,3.04933 0.43069,3.70417 0.81071,3.72434 5.26886,8.28289 10.32012,10.5525 2.25507,1.01324 6.96222,2.57418 7.42815,2.46325 0.10409,-0.0248 0.49417,0.0709 0.86681,0.21254 0.37266,0.14169 0.94234,0.3077 1.26595,0.36893 0.32364,0.0612 1.77903,0.34963 3.23424,0.6409 1.45521,0.29126 3.59833,0.66549 4.7625,0.83163 1.16416,0.16613 2.77151,0.41195 3.57187,0.54626 0.80037,0.13431 2.11005,0.31002 2.91042,0.39046 0.80036,0.0804 1.75286,0.19911 2.11667,0.26371 0.76477,0.13581 1.18835,0.18924 7.40833,0.93454 6.2176,0.74502 11.95573,1.52044 13.89063,1.8771 0.87312,0.16095 1.94468,0.34858 2.38125,0.41696 0.43656,0.0684 1.62718,0.30647 2.64583,0.5291 1.01864,0.22263 2.14974,0.46 2.51354,0.52749 0.3638,0.0675 1.67349,0.36309 2.91042,0.6569 1.23692,0.29381 2.54661,0.58702 2.91041,0.65156 0.36381,0.0645 0.86032,0.17722 1.10334,0.25038 0.24305,0.0732 0.65977,0.18345 0.92604,0.24508 0.26631,0.0616 1.61526,0.42176 2.99771,0.8003 1.38245,0.37853 3.10885,0.85003 3.83646,1.04777 2.40786,0.65437 14.17918,4.65665 15.875,5.39755 0.29104,0.12716 1.3626,0.56257 2.38125,0.9676 10.84178,4.31078 21.87101,10.33556 29.89791,16.33191 2.01232,1.50327 6.74688,5.93267 6.74688,6.31203 0,0.27743 -4.29533,-1.48293 -12.03854,-4.93376 -3.17204,-1.41364 -7.87183,-2.52831 -13.32048,-3.15925 -11.28165,-1.30638 -20.55228,0.69853 -27.69674,5.98983 -2.0233,1.49849 -5.22031,4.89311 -6.68568,7.09894 -2.71132,4.08138 -4.50866,8.9301 -5.35048,14.43409 -0.45511,2.97565 -0.48728,3.31482 -0.50652,5.33963 -0.0101,1.05502 -0.10821,1.91823 -0.21823,1.91823 -0.10999,0 -0.35922,-0.35976 -0.55388,-0.79946 z m -22.01868,-10.47295 c -0.22838,-0.0688 -0.67709,-0.66405 -0.99713,-1.3228 -0.57843,-1.19055 -3.44929,-5.81404 -4.14097,-6.66894 -0.19904,-0.24602 -1.0918,-1.37708 -1.98392,-2.51346 -4.64421,-5.91578 -9.61935,-9.98858 -16.5398,-13.53994 -5.00705,-2.56947 -9.40263,-4.17876 -15.61041,-5.71523 -9.43706,-2.33574 -10.57397,-2.4979 -17.06563,-2.4342 -3.1287,0.0307 -8.63534,0.1303 -12.23698,0.22133 l -6.54844,0.16553 v -0.92934 c 0,-2.565 -1.91407,-9.88838 -3.93604,-15.05963 -0.86781,-2.21943 -4.46395,-9.53364 -6.83631,-13.90444 -0.65601,-1.20862 -1.14578,-2.24446 -1.08836,-2.30187 0.0574,-0.0574 0.99338,0.33868 2.07994,0.8802 1.81316,0.90363 7.04668,2.89619 12.29432,4.68081 18.02529,6.13005 24.00543,8.22879 30.69166,10.77129 3.05594,1.16205 6.02428,2.28583 6.59628,2.4973 0.572,0.21147 1.54773,0.61578 2.16828,0.89847 0.62056,0.2827 1.19137,0.51399 1.26847,0.51399 0.0771,0 0.92006,0.35719 1.87322,0.79375 0.95317,0.43657 1.7929,0.79375 1.86603,0.79375 0.13904,0 3.94115,1.72183 8.45272,3.8279 7.54939,3.52418 15.65336,8.55545 20.23698,12.56389 9.27174,8.10828 14.17629,15.91011 12.43989,19.7885 -0.55727,1.24468 -1.8134,2.21527 -4.88461,3.77428 -3.3674,1.70936 -6.73118,2.63091 -8.09919,2.21886 z m 116.97029,-3.87499 c -0.48429,-1.95236 -0.84257,-3.15681 -1.86912,-6.28385 -0.8976,-2.73415 -3.86829,-10.69924 -4.48993,-12.03855 -0.1351,-0.29104 -0.61653,-1.48166 -1.06984,-2.64583 -3.76875,-9.67844 -10.96838,-25.15719 -14.40532,-30.97052 -0.65482,-1.10761 -1.1906,-2.06327 -1.1906,-2.1237 0,-0.4544 -6.60916,-10.73446 -9.65729,-15.02121 -1.01865,-1.43258 -2.09021,-2.94183 -2.38125,-3.35389 -0.29104,-0.41206 -1.42214,-1.89557 -2.51354,-3.2967 -1.09141,-1.40113 -2.32019,-2.98696 -2.73061,-3.52407 -0.41045,-0.53711 -1.06529,-1.33566 -1.45521,-1.77454 -0.38994,-0.43889 -1.18523,-1.38998 -1.76731,-2.11353 -0.58208,-0.72356 -1.23693,-1.49797 -1.45521,-1.72092 -0.21828,-0.22295 -1.48709,-1.65311 -2.81958,-3.17813 -2.73262,-3.12744 -12.35491,-12.700125 -15.56883,-15.488545 -1.16409,-1.009975 -2.23565,-1.968108 -2.38125,-2.129181 -0.3729,-0.412536 -6.55412,-5.391608 -9.75503,-7.857821 -3.10589,-2.393 -10.39812,-7.440962 -13.66073,-9.456476 -3.01008,-1.859515 -8.76146,-5.2793 -8.8787,-5.2793 -0.0516,0 -0.66463,-0.336243 -1.36226,-0.747204 -2.48129,-1.461686 -7.46284,-4.023739 -10.55994,-5.431073 -1.72913,-0.78572 -3.79873,-1.729653 -4.5991,-2.09763 -2.00287,-0.92084 -9.51844,-3.96462 -11.91868,-4.827014 -7.70057,-2.766779 -19.05201,-6.089787 -24.46153,-7.160839 -0.29104,-0.05762 -0.76729,-0.161417 -1.05833,-0.230648 -0.97525,-0.231992 -4.48172,-0.936546 -6.08542,-1.222738 -0.87312,-0.155815 -2.12328,-0.394107 -2.77812,-0.529534 -0.65485,-0.135427 -1.66688,-0.302744 -2.24896,-0.371814 -0.58208,-0.06907 -1.35599,-0.182726 -1.71979,-0.252566 -0.3638,-0.06984 -1.13771,-0.191791 -1.71979,-0.271002 -0.58209,-0.07921 -1.35599,-0.201205 -1.71979,-0.271095 -2.29926,-0.441711 -12.35949,-1.36286 -17.99167,-1.64738 -6.5967,-0.333243 -22.02228,-0.259694 -25.1396,0.119864 l -0.9302,0.113263 1.32707,1.367351 c 4.60471,4.744402 10.91446,13.355391 15.44561,21.078809 1.72387,2.938375 6.47052,12.294921 7.29597,14.3818 l 0.71757,1.81409 -0.60671,0.699452 c -3.09187,3.564454 -7.10457,6.536362 -14.48348,10.726807 -1.94781,1.106151 -3.58148,2.011185 -3.6304,2.011185 -0.0489,0 -0.99515,0.535781 -2.10278,1.190625 -1.10762,0.654844 -2.0566,1.190625 -2.10883,1.190625 -0.29755,0 -7.73496,5.111679 -9.5186,6.542069 -11.93714,9.57301 -17.06933,18.56716 -20.88643,36.60346 -0.20233,0.95603 -0.40769,2.76462 -0.45635,4.01909 -0.0487,1.25447 -0.16324,2.19867 -0.25462,2.09822 -0.0914,-0.10045 -0.55369,-0.89701 -1.02734,-1.77014 -3.65326,-6.73441 -6.5882,-12.05393 -7.80985,-14.1552 -3.96314,-6.81672 -7.75052,-14.91397 -9.6368,-20.60305 -0.63139,-1.90427 -2.06203,-6.89399 -2.24778,-7.83966 -0.0727,-0.37009 -0.67267,-3.2267 -0.9447,-4.49791 -0.40101,-1.873937 -0.57682,-7.083823 -0.30977,-9.179805 0.69994,-5.493763 4.66047,-9.649653 12.26557,-12.870601 5.89842,-2.49813 15.01772,-4.631436 22.31224,-5.219573 5.79089,-0.466905 7.0191,-0.544179 8.40054,-0.528521 0.83675,0.0095 1.52136,-0.04989 1.52136,-0.13195 -5e-5,-0.276368 -2.43532,-3.783211 -3.93125,-5.661089 -3.37294,-4.234103 -10.56721,-10.794421 -17.10315,-15.596047 -1.16417,-0.855253 -2.53339,-1.873354 -3.04271,-2.262445 -2.85217,-2.178878 -9.10817,-6.008129 -13.06608,-7.997653 -4.40029,-2.211893 -12.72447,-5.612931 -15.37663,-6.282478 -2.81199,-0.709896 -4.04624,-1.586865 -3.71264,-2.63793 0.82139,-2.587988 11.29178,-6.666302 25.54077,-9.948368 0.21828,-0.05028 1.4089,-0.329557 2.64583,-0.620623 9.10078,-2.141516 25.97841,-5.06813 29.22765,-5.06813 1.89931,0 3.42355,0.534911 3.86276,1.355585 0.43378,0.81054 -0.43133,1.517337 -3.19249,2.608246 -5.56614,2.199135 -7.72463,3.816128 -6.59799,4.942766 0.26006,0.260056 1.70127,-0.247338 5.43313,-1.912784 2.98003,-1.329928 9.03764,-3.322426 13.98958,-4.601525 5.01775,-1.296096 11.07991,-1.74476 12.96006,-0.959181 3.00972,1.257533 1.70373,4.520107 -2.23687,5.588196 -0.0728,0.01971 -0.31088,0.108379 -0.52916,0.197019 -0.38944,0.158136 -1.07535,0.356005 -3.94894,1.139151 -1.51513,0.412919 -3.98856,1.641827 -3.98856,1.981686 0,0.888826 0.27926,0.930074 2.45499,0.362607 1.19636,-0.312034 2.35381,-0.63413 2.57209,-0.715764 0.21828,-0.08163 0.93266,-0.282136 1.5875,-0.445556 1.79845,-0.448813 1.85748,-0.465299 3.70417,-1.034587 2.50772,-0.773068 8.70045,-2.003219 11.50937,-2.286275 0.72761,-0.07332 2.15636,-0.237392 3.175,-0.364601 1.01865,-0.127212 4.76912,-0.23571 8.33438,-0.241107 5.36498,-0.0081 6.73312,0.06749 7.9375,0.438695 1.32752,0.409154 1.45521,0.516027 1.45521,1.218033 0,0.978024 -0.86704,1.510533 -3.87371,2.379147 -2.28368,0.659735 -2.45968,0.700735 -5.12213,1.193175 -4.92323,0.910588 -7.63082,1.629537 -8.42142,2.236145 -0.3688,0.282961 -0.42159,0.487852 -0.2218,0.861115 0.25429,0.475163 0.41114,0.476041 5.24642,0.0294 14.85236,-1.371936 19.49731,-1.539502 24.71905,-0.891741 1.67523,0.207814 3.68165,0.619421 4.4587,0.914683 1.44846,0.550373 2.66176,1.470414 2.66176,2.018417 0,0.427733 -1.17813,0.92239 -2.19689,0.92239 -1.66176,0 -7.48302,0.78477 -8.84946,1.193004 -0.87622,0.261776 -1.38906,0.561951 -1.38906,0.813022 0,0.558694 6.06988,3.40564 8.99583,4.2193 0.21828,0.0607 3.19484,1.073105 6.61458,2.249786 3.41974,1.176682 7.22974,2.477416 8.46667,2.890523 1.23693,0.413107 2.54661,0.875366 2.91042,1.027242 0.3638,0.151874 1.73302,0.648287 3.0427,1.103141 1.30969,0.454855 2.61938,0.929976 2.91042,1.055825 0.29104,0.125849 1.95792,0.788447 3.70417,1.472438 6.39347,2.50427 15.54649,7.26341 22.35729,11.624741 6.36765,4.077555 15.62486,10.377956 16.13958,10.984516 0.0728,0.08574 0.60855,0.504042 1.19063,0.929558 8.9702,6.557407 21.41022,18.098977 29.66003,27.517922 4.39079,5.01303 7.11764,8.42557 11.72615,14.67477 2.25181,3.05352 9.54611,14.08819 9.54611,14.44121 0,0.0752 0.41672,0.78819 0.92604,1.58439 0.50933,0.7962 0.92605,1.48777 0.92605,1.53682 0,0.0491 0.61142,1.14807 1.35874,2.44226 1.54294,2.6721 6.24207,11.87213 7.68871,15.05306 2.27388,4.99999 3.2589,7.39303 5.21372,12.66645 2.73669,7.38255 3.22093,8.82013 5.26955,15.64397 2.74767,9.15235 5.20856,21.29896 4.31514,21.29896 -0.15266,0 -0.40307,-0.50602 -0.55647,-1.12448 z m -6.6588,-3.04827 c -0.94874,-0.83369 -2.71838,-2.34923 -3.93252,-3.36788 -1.21415,-1.01864 -2.76218,-2.32833 -3.44004,-2.91041 -0.67786,-0.58209 -2.34537,-1.9513 -3.70559,-3.04271 -1.36023,-1.09141 -2.89806,-2.34874 -3.41747,-2.79407 -3.31689,-2.84392 -11.40883,-8.80527 -16.15069,-11.89828 -6.60411,-4.30772 -11.4548,-6.8509 -18.66033,-9.78348 -3.82918,-1.55844 -13.05385,-4.71311 -16.53646,-5.65516 -1.0914,-0.29523 -2.63921,-0.72569 -3.43958,-0.95659 -0.80036,-0.23089 -1.6338,-0.47134 -1.85208,-0.53434 -0.66556,-0.1921 -10.68221,-2.79337 -11.19979,-2.90853 -0.26628,-0.0593 -0.74253,-0.19086 -1.05833,-0.29247 -0.31578,-0.10162 -0.8123,-0.22112 -1.10334,-0.26557 -0.29104,-0.0445 -1.06495,-0.21322 -1.71979,-0.37503 -2.94844,-0.72857 -5.63325,-1.33793 -8.20047,-1.8612 -1.52707,-0.31127 -3.01535,-0.61479 -3.30729,-0.67449 -1.67505,-0.34259 -5.26355,-0.96594 -6.74849,-1.17227 -0.94589,-0.13144 -2.86994,-0.41585 -4.27564,-0.63203 -1.40574,-0.21619 -3.19167,-0.45877 -3.96875,-0.53908 -0.77711,-0.0803 -1.86373,-0.2151 -2.41472,-0.29952 -0.551,-0.0844 -1.54943,-0.19525 -2.21872,-0.24629 -1.20915,-0.0922 -4.12692,-0.40868 -8.68572,-0.94207 -2.7464,-0.32134 -7.32798,-1.0329 -7.55533,-1.17341 -0.0851,-0.0526 -0.44397,-0.15151 -0.79759,-0.21987 -0.67683,-0.13083 -3.00437,-0.75967 -4.34708,-1.17446 -1.10373,-0.34096 -5.07981,-2.00207 -6.49689,-2.71424 -3.54645,-1.7823 -5.1756,-3.13906 -6.29809,-5.24512 -0.69091,-1.29623 -0.85516,-1.99227 -1.10429,-4.67894 -0.43453,-4.68621 -0.75753,-5.59934 -2.72156,-7.69397 -1.33313,-1.42178 -4.20095,-3.08086 -6.139,-3.55151 -6.47117,-1.57153 -18.46085,-1.39189 -27.64329,0.41418 -0.3638,0.0716 -0.90218,0.17855 -1.1964,0.23777 -8.10405,1.63108 -17.93502,5.42865 -23.18854,8.95742 -3.44979,2.3172 -4.8102,3.55233 -10.34686,9.39397 -3.31381,3.49636 -4.3804,0.0648 -2.06295,-6.63717 2.1047,-6.08672 9.18196,-15.47575 15.09804,-20.02979 0.65437,-0.50371 1.36874,-1.05689 1.5875,-1.2293 2.6793,-2.1115 5.59565,-3.95609 12.03942,-7.6149 10.76568,-6.112838 13.99055,-8.412525 18.74284,-13.365689 2.99307,-3.119583 2.93664,-2.857561 1.39994,-6.499876 -3.5074,-8.313375 -8.01696,-16.7112 -12.83393,-23.899696 -3.42308,-5.10834 -4.56896,-6.622653 -6.22261,-8.223449 -0.67019,-0.648761 -1.21854,-1.28842 -1.21854,-1.421463 0,-0.353565 13.49264,0.01871 17.99167,0.496406 0.65484,0.06953 2.08359,0.186984 3.175,0.261006 1.09141,0.07403 2.4011,0.190077 2.91042,0.257895 0.50932,0.06782 1.54686,0.182205 2.3056,0.254193 3.26925,0.310168 13.95273,1.854719 14.65514,2.118746 0.2032,0.07638 0.72665,0.182518 1.16322,0.235853 0.43656,0.05334 2.0439,0.356102 3.57187,0.672811 2.71291,0.562319 3.43189,0.724591 8.33438,1.881013 6.88525,1.624121 20.33161,5.892636 24.64623,7.823883 0.45857,0.20525 0.93482,0.377224 1.05833,0.382161 0.12353,0.0049 0.70085,0.239022 1.28294,0.52019 0.58208,0.281167 1.14464,0.515252 1.25015,0.520189 0.10549,0.0049 0.96481,0.363016 1.90958,0.795732 0.94478,0.432715 2.46579,1.100378 3.38005,1.483693 3.0783,1.290614 13.0056,6.374622 17.26957,8.844164 5.94834,3.445047 17.2008,10.850883 18.89667,12.43688 0.23554,0.220247 0.84331,0.692272 1.35068,1.048943 7.23339,5.085048 23.19985,20.116525 29.10059,27.396455 0.50933,0.62837 1.76954,2.13418 2.80048,3.34624 4.21257,4.9527 9.29106,11.68582 12.63817,16.75583 0.48035,0.7276 1.10244,1.66608 1.38245,2.08551 0.28001,0.41943 0.62944,0.95521 0.77653,1.19062 0.14708,0.23542 0.73273,1.1424 1.30148,2.01553 1.25749,1.93047 5.17798,8.36294 5.17798,8.49567 0,0.0524 0.34824,0.66267 0.7739,1.35608 1.71069,2.78685 6.64811,12.47517 9.39787,18.44066 0.9303,2.01826 4.27789,9.87764 5.02264,11.79196 0.19815,0.50933 0.78113,1.99761 1.29556,3.30729 0.85775,2.18385 1.88772,5.07707 3.75153,10.5381 0.38883,1.1393 0.65934,2.11906 0.60113,2.17726 -0.0582,0.0582 -0.88204,-0.5763 -1.83079,-1.40998 z m -242.03817,-18.1184 c -0.99286,-3.97232 -3.50855,-7.74807 -6.93059,-10.40202 -3.04746,-2.36344 -10.18163,-5.54096 -13.70236,-6.10295 -0.49723,-0.0794 -1.18805,-0.25228 -1.53515,-0.38425 -0.47983,-0.18243 -6.73584,-0.14115 -7.94285,0.0524 -0.1107,0.0178 -0.52537,0.0182 -0.92149,0.001 -0.63407,-0.0276 -0.76903,-0.19925 -1.12835,-1.43528 -0.85775,-2.95055 -3.4354,-7.16661 -6.52423,-10.67114 -0.63371,-0.719 -1.74752,-2.00495 -2.47512,-2.85767 -0.72761,-0.85271 -1.75518,-2.03864 -2.28351,-2.63538 -1.94153,-2.19296 -4.53211,-5.87822 -6.64841,-9.45777 -1.48485,-2.51153 -5.02335,-9.4889 -5.76008,-11.35801 -0.3093,-0.78469 -0.83013,-2.02408 -1.1574,-2.7542 -0.32728,-0.73012 -0.92731,-2.16093 -1.33341,-3.17958 -0.4061,-1.01865 -0.83989,-2.09021 -0.96397,-2.38125 -2.13523,-5.00829 -4.73486,-13.73073 -5.29023,-17.750068 -0.32171,-2.328357 -0.31251,-2.445261 0.29158,-3.704167 1.03762,-2.162381 4.72393,-5.710166 10.04855,-9.670947 2.25976,-1.680943 8.99345,-6.270995 10.18646,-6.943648 0.43656,-0.246145 1.4486,-0.862888 2.24896,-1.370537 l 1.45521,-0.922999 -1.19063,0.16541 c -0.65484,0.09097 -1.60734,0.267367 -2.11666,0.39198 -0.50933,0.124616 -1.28323,0.288507 -1.71979,0.364205 -1.58748,0.275259 -8.01179,1.996818 -10.98021,2.942428 -1.67349,0.533101 -3.3999,1.059937 -3.83646,1.170744 -0.43656,0.110805 -1.85214,0.567802 -3.14572,1.015545 l -2.35197,0.814081 0.17831,-2.138093 c 0.31812,-3.814574 1.6139,-6.679819 4.06122,-8.980228 1.11511,-1.048295 4.22609,-3.141112 4.66909,-3.141112 0.0917,0 0.67143,-0.228934 1.28831,-0.508741 0.61687,-0.27981 2.49081,-0.948201 4.1643,-1.485318 7.26427,-2.331506 11.75511,-3.891211 13.62604,-4.73243 0.43657,-0.196289 2.16297,-0.92792 3.83646,-1.625846 4.83983,-2.018443 14.26187,-6.96572 17.85938,-9.377516 3.98881,-2.674134 3.98338,-2.671342 4.88461,-2.512568 1.15691,0.203819 5.03061,1.70807 7.13784,2.771798 2.44028,1.23185 5.64491,3.353179 8.21817,5.440088 2.68704,2.179182 1.99025,1.552562 6.78544,6.102043 2.1616,2.050841 4.85461,4.543515 5.98445,5.539277 1.12985,0.995762 1.96329,1.898044 1.85209,2.005071 -0.1112,0.107029 -0.73797,0.254447 -1.39281,0.327599 -0.65484,0.07315 -2.73844,0.452826 -4.63021,0.843717 -1.89177,0.390892 -3.73724,0.769016 -4.10104,0.840274 -0.3638,0.07126 -1.4949,0.37797 -2.51354,0.68158 -1.01865,0.303609 -1.91162,0.564279 -1.98438,0.579265 -0.34734,0.07154 -3.89971,1.241947 -4.36562,1.438349 -0.29104,0.122688 -1.77933,0.67259 -3.30729,1.222008 -5.47625,1.969114 -10.11491,4.644453 -12.45136,7.181297 -2.14735,2.331537 -4.06071,5.920822 -4.77115,8.950261 -0.48548,2.07019 -0.48935,8.847384 -0.007,11.641668 0.60742,3.51618 1.6109,7.03614 3.24244,11.3737 0.9567,2.54347 6.17473,13.14606 10.41877,21.17005 7.34827,13.893 9.44806,19.09559 11.2126,27.78124 0.9672,4.7609 0.79263,9.44901 -0.47817,12.84119 -0.48689,1.29971 -2.68039,4.22444 -3.16824,4.22444 -0.10673,0 -0.35028,-0.62508 -0.54124,-1.38907 z m -36.39764,-6.46955 c -2.99786,-1.10078 -4.55966,-1.33873 -8.09036,-1.23262 l -3.47619,0.10447 -2.5511,-1.80162 c -8.63624,-6.09903 -12.23407,-7.91843 -18.95527,-9.58551 -2.26218,-0.56109 -8.14334,-0.5781 -10.58333,-0.0306 -3.64623,0.81817 -6.82733,2.07565 -8.53257,3.37291 -1.01158,0.76955 -1.05034,0.75195 -2.98912,-1.35696 -5.72069,-6.22268 -10.04005,-12.4984 -13.43574,-19.52115 l -1.37922,-2.8524 0.73291,-0.64497 c 0.40309,-0.35473 0.81303,-0.64873 0.91096,-0.65332 0.18531,-0.009 4.95818,-3.76139 6.5625,-5.15981 3.23129,-2.81656 9.79941,-9.24843 13.24878,-12.97394 1.67914,-1.81356 6.38384,-7.42023 7.54302,-8.98914 0.99855,-1.3515 1.16354,-1.56572 2.55131,-3.31255 1.53334,-1.93006 4.43778,-5.69074 5.12989,-6.642194 l 0.55315,-0.760413 1.00043,4.032037 c 1.05275,4.24287 1.40934,5.51305 2.3947,8.52995 0.3327,1.01864 0.98613,3.04271 1.45207,4.49791 1.08427,3.38644 3.44424,9.21515 4.52579,11.17792 0.46129,0.83715 1.13214,2.05787 1.49076,2.71271 2.76198,5.0433 8.03624,12.59861 16.3884,23.47621 0.91947,1.1975 1.67177,2.24724 1.67177,2.33276 0,0.0855 0.28573,0.5345 0.63497,0.99773 0.84423,1.11984 2.88892,5.2211 3.56151,7.14375 0.48218,1.37836 1.0174,3.75597 1.48502,6.59694 0.18782,1.1411 -0.035,1.20653 -1.84504,0.5419 z m -69.97514,-59.93093 c -0.0164,-0.43081 1.19515,-3.41107 2.2896,-5.63232 1.41088,-2.86346 1.39789,-2.84128 3.39179,-5.790915 2.06432,-3.053818 2.23921,-3.296931 4.91115,-6.826806 1.24592,-1.645983 2.49608,-3.336853 2.77812,-3.757491 0.28205,-0.420634 0.75094,-1.090572 1.04198,-1.488744 0.29104,-0.398174 1.82599,-2.673392 3.411,-5.056042 1.58501,-2.382647 3.43048,-5.142275 4.10104,-6.132507 0.67056,-0.990232 1.3978,-2.078779 1.61608,-2.418993 0.79832,-1.244256 2.88695,-4.192519 4.23334,-5.975668 4.35633,-5.769522 9.75417,-11.112196 14.51562,-14.367301 1.10278,-0.753898 1.67731,-0.969909 2.57969,-0.969909 0.86267,0 1.16094,0.103391 1.16094,0.402423 0,0.221334 -0.74996,1.382194 -1.66658,2.579687 -3.30163,4.313346 -4.9182,7.295508 -6.4975,11.986245 -1.48763,4.418465 -2.30096,8.90284 -2.48984,13.727874 l -0.0617,1.576441 -3.57187,1.950553 c -5.08351,2.776038 -7.9442,4.614032 -13.75834,8.839737 -3.06448,2.227258 -7.41474,5.846877 -8.73125,7.264796 -0.80036,0.86202 -2.82443,3.10497 -4.49792,4.98431 -4.38854,4.92838 -4.7474,5.3136 -4.75534,5.10463 z"
       id="path3731"
       inkscape:connector-curvature="0" />
  </g>
</svg>
